<?xml version="1.0" encoding="UTF-8"?>
<svg width="3304.3" height="3304.2" version="1.1" viewBox="0 0 3304.3 3304.2" xmlns="http://www.w3.org/2000/svg">
 <defs>
  <clipPath id="clip-0">
   <path d="m0 0h3304.3v3304.2h-3304.3z"/>
  </clipPath>
  <clipPath id="clip-1">
   <path d="m431.49 281.72c-82.594 0-149.77 67.191-149.77 149.77v2441.3c0 82.578 67.16 149.79 149.77 149.79h2441.3c82.57 0 149.79-67.191 149.79-149.79v-2441.3c0-82.578-67.188-149.77-149.79-149.77zm-64.602-193.74c-153.8 0-278.94 125.1-278.94 278.91v2570.5c0 153.81 125.11 278.91 278.94 278.91h2570.5c153.81 0 278.94-125.1 278.94-278.91v-2570.5c0-153.81-125.15-278.91-278.96-278.91zm2570.5 3216.2c202.27 0 366.88-164.55 366.9-366.84v-2570.5c0-202.31-164.6-366.89-366.9-366.89l-2570.5-0.011719c-202.31 0-366.89 164.58-366.89 366.89v2570.5c0 202.32 164.58 366.87 366.89 366.87zm-326.61-2790.9c-99.07 0-179.68 80.609-179.68 179.68 0 99.102 80.613 179.72 179.68 179.72 99.098 0 179.71-80.617 179.71-179.72 0.03125-99.07-80.578-179.68-179.71-179.68zm0 447.37c147.61 0 267.65-120.09 267.65-267.66 0-147.6-120.04-267.66-267.65-267.66-147.58 0-267.64 120.09-267.64 267.66 0 147.6 120.08 267.66 267.64 267.66zm-958.64 302.73c-214.3 0-388.69 174.38-388.69 388.69 0 214.31 174.39 388.69 388.69 388.69 214.31 0 388.68-174.38 388.68-388.69 0-214.31-174.37-388.69-388.68-388.69zm0 865.31c262.8 0 476.62-213.8 476.62-476.59 0-262.83-213.8-476.65-476.62-476.65-262.81 0-476.63 213.82-476.63 476.65 0 262.79 213.82 476.59 476.63 476.59zm0-1125.6c-357.82 0-648.94 291.11-648.94 648.94 0 357.83 291.12 648.98 648.94 648.98 357.82 0 648.97-291.15 648.97-648.98 0-357.83-291.15-648.94-648.97-648.94zm0 1385.8c406.34 0 736.91-330.55 736.91-736.89 0-406.33-330.57-736.91-736.91-736.91-406.33 0-736.91 330.58-736.91 736.91 0 406.34 330.57 736.89 736.91 736.89zm1220.6 721.48h-2441.3c-131.08 0-237.71-106.64-237.71-237.73v-2441.3c0-131.08 106.62-237.74 237.7-237.74h2441.3c131.09 0 237.7 106.66 237.7 237.74v2441.3c0 131.06-106.64 237.7-237.73 237.7" clip-rule="evenodd"/>
  </clipPath>
 </defs>
 <g clip-path="url(#clip-0)" fill="#fff">
  <g clip-path="url(#clip-1)" fill="#fff">
   <path d="m0 0v3304.2h3304.3v-3304.2z" fill="#fff"/>
  </g>
 </g>
</svg>
