<?xml version="1.0" encoding="UTF-8"?>
<!-- Created with Inkscape (http://www.inkscape.org/) -->
<svg width="4405.7" height="4405.6" version="1.1" viewBox="0 0 4405.7 4405.6" xmlns="http://www.w3.org/2000/svg">
 <g transform="translate(0 -.00014347)">
  <g fill-rule="evenodd">
   <path transform="matrix(.13333 0 0 -.13333 0 4405.6)" d="m29374 0h-25705c-2023.1 0-3668.9 1645.5-3668.9 3668.5v25705c0 2023.1 1645.8 3668.9 3668.9 3668.9h25705c2023 0 3669-1645.9 3669-3668.9v-25705c-0.2-2023-1646.3-3668.5-3669-3668.5" fill="#fff"/>
   <path transform="matrix(.13333 0 0 -.13333 0 4405.6)" d="m28728 1937.3h-24413c-1310.8 0-2377.2 1066.4-2377.2 2377.3v24413c0 1310.9 1066.2 2377.4 2377 2377.4h24413c1310.9 0 2377-1066.5 2377-2377.4v-24413c0-1310.6-1066.4-2377-2377.3-2377" fill="#1f2937"/>
   <path transform="matrix(.13333 0 0 -.13333 0 4405.6)" d="m8326 21998c-1341.8 0-2433.9 1091.9-2433.9 2434.1 0 1342 1091.7 2434 2433.9 2434 1342.3 0 2434.3-1092 2434.3-2434 0-1342.2-1092-2434.1-2434.3-2434.1zm1990.1-15822h-3979.7c-242.96 0-439.82 197-439.82 439.7v13759c0 243 196.86 439.9 439.82 439.9h3979.7c242.8 0 439.7-196.9 439.7-439.9v-13759c0-243-196.7-439.7-439.7-439.7zm16395 0h-3642.5c-243 0-439.7 197-439.7 439.7v5927c0 1296.5-1185.1 2351.3-2642.3 2351.3s-2642.5-1054.8-2642.5-2351.5v-5926.8c0-243-197-439.7-439.7-439.7l-3979.6-0.3c-243 0-439.8 196.8-439.8 439.7v13760c0 243 196.8 439.9 439.8 439.9h3979.8c243 0 439.7-196.9 439.7-439.9v-1531.1c923 1226.3 2510.5 1971 4463.3 1971 2946.4 0 5343.2-2396.9 5343.2-5343.1v-8856.1c0-243-196.8-439.7-439.7-439.7" fill="#fff"/>
  </g>
 </g>
</svg>
