<?xml version="1.0" encoding="UTF-8"?>
<svg width="3237" height="3435.6" version="1.1" viewBox="0 0 3237 3435.6" xmlns="http://www.w3.org/2000/svg">
 <defs>
  <clipPath id="clip-0">
   <path d="m2136 3892h667v36h-667z"/>
  </clipPath>
  <clipPath id="clip-1">
   <path d="m2802.4 3770.5h-674.73s23.258 259.6 34.238 382.12c3.1797 35.488 32.832 62.73 68.461 62.895 117.01 0.5429 367.18 1.6992 486.94 2.2539 37.152 0.1718 67.781-29.078 69.312-66.199 5.168-124.68 15.781-381.07 15.781-381.07z" clip-rule="evenodd"/>
  </clipPath>
  <clipPath id="clip-2">
   <path d="m2136 3993h667v36h-667z"/>
  </clipPath>
  <clipPath id="clip-3">
   <path d="m2802.4 3770.5h-674.73s23.258 259.6 34.238 382.12c3.1797 35.488 32.832 62.73 68.461 62.895 117.01 0.5429 367.18 1.6992 486.94 2.2539 37.152 0.1718 67.781-29.078 69.312-66.199 5.168-124.68 15.781-381.07 15.781-381.07z" clip-rule="evenodd"/>
  </clipPath>
 </defs>
 <path d="m1920.9 2988.3h-673.92s-36.719-168.95-68.039-261.13c-142.36-419.08-499.32-573.73-532.06-1051.6-35.52-518.42 421.88-941.52 941.52-941.52 519.64 0 951.34 421.97 941.53 941.52-5.4297 287.67-343.22 712.69-519.83 1000.7-104.38 170.23-91.383 306.57-89.199 311.99" fill="#fad23c" fill-rule="evenodd"/>
 <path d="m1393.1 2988.3c2.8516-57.059-122.07-963.15-210.37-941.68-7.75 1.879 23.359 199.22 96.199 183.85 14.777-3.1133 118.32-449.58 83.367-423.28-10.359 7.8007-20.637 112.74-11.43 144.16 43.211 147.38 42.57 235.07 141.84 259.88 12.922 3.2422 86.441-72.398 102.61-104.75 33-65.988 132.8-375.64 40.617-363.43-28.418 3.7696-45.379 105.07-47.988 136.4-9.3203 111.75 22.488 272.38 159.16 299.72 120.82 24.16 231.61-323.52 126.13-346.33-55.969-12.098-107.9 208.1-36.34 290.74 12.102 13.98 69.789 305.02 158.53 24.211 2.3985-7.6133 10.648-75.812 3.9375-69.102-25.43 25.43-60.68 107.88-78.476 138.89-94.203 164.07-172.75 719.95-159.21 770.72" fill="none" stroke="#fff" stroke-linecap="round" stroke-linejoin="round" stroke-miterlimit="10" stroke-width="18.598"/>
 <path d="m1920.9 2988.3h-674.73s23.258 259.6 34.238 382.12c3.1797 35.488 32.832 62.73 68.461 62.895 117.01 0.5429 367.18 1.6992 486.94 2.2539 37.152 0.1718 67.781-29.078 69.312-66.199 5.168-124.68 15.781-381.07 15.781-381.07" fill="#59595b" fill-rule="evenodd"/>
 <g transform="translate(-881.49 -782.21)" clip-path="url(#clip-0)">
  <g clip-path="url(#clip-1)">
   <path d="m2802.4 3892.8h-665.89v34.23h665.89v-34.23" fill="#7f7d82" fill-rule="evenodd"/>
  </g>
 </g>
 <g transform="translate(-881.49 -782.21)" clip-path="url(#clip-2)">
  <g clip-path="url(#clip-3)">
   <path d="m2802.4 3993.9h-665.89v34.234h665.89v-34.234" fill="#7f7d82" fill-rule="evenodd"/>
  </g>
 </g>
 <g fill="#fad23c" fill-rule="evenodd">
  <path d="m105.22 946.35c-19.527-7.1172-41.086-6.1875-59.93 2.582-18.844 8.7813-33.43 24.68-40.551 44.211-7.1211 19.52-6.1953 41.078 2.582 59.93 8.7734 18.84 24.672 33.43 44.199 40.547 101.64 37.062 283.87 103.51 385.52 140.57 19.527 7.1211 41.09 6.1914 59.93-2.5781 18.848-8.7812 33.43-24.68 40.559-44.199 7.1211-19.531 6.1914-41.09-2.5898-59.93-8.7695-18.852-24.668-33.43-44.199-40.562-101.64-37.059-283.87-103.51-385.52-140.57"/>
  <path d="m693.38 253.53c-24.16-31.68-67.93-40.758-102.69-21.309-4.0078 2.2422-8.0703 4.5117-12.148 6.8008-20.23 11.32-34.551 30.859-39.262 53.551-4.7109 22.699 0.6524 46.328 14.711 64.758 72.848 95.57 198.67 260.59 263.99 346.27 24.152 31.68 67.922 40.762 102.68 21.312 4.0118-2.25 8.0704-4.5195 12.152-6.8008 20.23-11.32 34.551-30.859 39.258-53.559 4.7109-22.703-0.6484-46.32-14.707-64.762-72.852-95.559-198.67-260.58-263.98-346.26"/>
  <path d="m1620.7 76.32c-0.539-20.781-9.3203-40.492-24.398-54.801-15.078-14.309-35.219-22.039-56-21.492-20.781 0.54297-40.488 9.3203-54.801 24.402-14.309 15.07-22.039 35.219-21.488 56 2.8282 108.15 7.918 302.05 10.758 410.2 0.5429 20.781 9.3203 40.488 24.402 54.801 15.07 14.309 35.219 22.039 56 21.5 20.777-0.5508 40.488-9.332 54.801-24.402 14.297-15.078 22.039-35.227 21.488-56.008-2.8399-108.15-7.9219-302.05-10.762-410.2"/>
  <path d="m2681.3 359.45c14.672-18.012 20.793-41.512 16.762-64.391-4.0195-22.879-17.789-42.879-37.73-54.801-3.7812-2.2578-7.539-4.5078-11.25-6.7304-34.102-20.387-77.988-12.668-103.08 18.133-68.293 83.809-200.35 245.91-276.72 339.66-14.68 18.008-20.789 41.508-16.77 64.391 4.0196 22.879 17.789 42.879 37.73 54.797 3.7813 2.2617 7.5391 4.5117 11.25 6.7304 34.102 20.391 77.988 12.672 103.09-18.129 68.281-83.809 200.34-245.91 276.72-339.66"/>
  <path d="m3185.5 1104.3c19.527-7.1094 35.438-21.691 44.219-40.531 8.789-18.84 9.7304-40.391 2.621-59.93-7.1015-19.531-21.68-35.441-40.52-44.219-18.84-8.7891-40.402-9.7305-59.934-2.6211-101.66 36.992-283.94 103.33-385.6 140.32-19.539 7.1094-35.449 21.691-44.23 40.531-8.7891 18.828-9.7305 40.391-2.6211 59.93 7.1094 19.527 21.68 35.438 40.52 44.219 18.84 8.7891 40.402 9.7305 59.93 2.6211 101.67-37 283.94-103.33 385.61-140.32"/>
 </g>
</svg>
