<?xml version="1.0" encoding="UTF-8"?>
<!-- Created with Inkscape (http://www.inkscape.org/) -->
<svg width="329.92mm" height="281.69mm" version="1.1" viewBox="0 0 329.92 281.69" xmlns="http://www.w3.org/2000/svg">
 <g transform="translate(-40.481 -60.854)">
  <path d="m331.16 332.87c0 5.3446-27.739 9.6767-61.955 9.6767-34.216 0-61.951-4.3321-61.951-9.6767 0-5.3446 27.735-9.6767 61.951-9.6767 34.216 0 61.955 4.3321 61.955 9.6767" fill="#2085b7"/>
  <path d="m317.22 133.26c-16.097-23.421-55.249-23.421-55.249-23.421s-39.151 0-55.252 23.421c-14.774 21.491-14.637 50.86-14.637 50.86l14.273 18.295h111.23l14.27-18.295s0.14111-29.369-14.637-50.86" fill="#d5e9f2"/>
  <path d="m317.25 133.26c-6.3112-9.1828-16.168-14.764-25.816-18.157 4.9918 3.108 9.5356 7.0697 13.01 12.118 14.774 21.491 14.633 50.86 14.633 50.86l-14.27 18.295h-103.13l4.7096 6.0396h111.23l14.273-18.295s0.13759-29.369-14.637-50.86" fill="#a8d7e9"/>
  <path d="m297.47 138.02c-15.004-11.342-55.982-11.342-70.986 0-16.288 12.315-15.734 41.712-15.734 41.712h102.45s0.55033-29.397-15.734-41.712" fill="#002b43"/>
  <path d="m211.18 179.73c1.0054-9.592 4.3356-25.643 15.307-33.937 15.004-11.345 55.982-11.345 70.986 0 10.971 8.2938 14.302 24.345 15.304 33.937h0.43039s0.55033-29.397-15.734-41.712c-15.004-11.342-55.982-11.342-70.986 0-16.288 12.315-15.734 41.712-15.734 41.712h0.42686" fill="#000f16"/>
  <g fill="#d5e9f2">
   <path d="m276.43 114.23c0 1.2136-0.98425 2.1943-2.1943 2.1943h-24.518c-1.21 0-2.1943-0.98072-2.1943-2.1943v-7.6835c0-1.2136 0.98425-2.1943 2.1943-2.1943h24.518c1.21 0 2.1943 0.98072 2.1943 2.1943v7.6835"/>
   <path d="m255.45 110.21 3.2914-30.734h4.3921l5.3693 30.917-13.053-0.18345"/>
   <path d="m266.36 79.475c0 2.9281-2.3742 5.3058-5.3022 5.3058-2.9316 0-5.3058-2.3777-5.3058-5.3058 0-2.9316 2.3742-5.3058 5.3058-5.3058 2.9281 0 5.3022 2.3742 5.3022 5.3058"/>
  </g>
  <g fill="#a8d7e9">
   <path d="m264.37 75.33c0.34219 0.6985 0.53269 1.4852 0.53269 2.3142 0 2.9316-2.3777 5.3058-5.3058 5.3058-1.2559 0-2.4059-0.43392-3.3126-1.1606 0.86078 1.7709 2.674 2.9916 4.7766 2.9916 2.9281 0 5.3022-2.3777 5.3022-5.3058 0-1.6792-0.77611-3.1715-1.9932-4.1451"/>
   <path d="m206.36 202.42h111.23l14.27-18.295h-139.77l14.273 18.295"/>
   <path d="m276.43 110.64c0 0.77258-0.49389 1.397-1.0971 1.397h-12.259c-0.60677 0-1.0971-0.62442-1.0971-1.397v-4.8895c0-0.77258 0.49036-1.397 1.0971-1.397h12.259c0.60325 0 1.0971 0.62442 1.0971 1.397v4.8895"/>
  </g>
  <path d="m240.08 119.94c-1.785-3.4149-9.8496-1.4605-12.488-0.21519-2.1519 1.016-6.0466 3.2667-8.5337 5.6586-1.9685 1.5699-3.7289 3.3972-5.2599 5.4575-1.2735 1.711-3.6724 5.2352-2.1343 7.4824 1.6933 2.4694 4.5508 0.32809 5.969-1.0971 3.6936-3.7148 6.5299-7.6941 11.539-9.9554 2.4624-1.1112 13.007-3.3091 10.908-7.3307" fill="#fff"/>
  <path d="m258.94 76.417c-2.4977 0.60325-1.5416 5.8208 1.5311 3.0127 2.4448-2.2331-0.11642-3.6407-1.5311-3.0127" fill="#fff"/>
  <path d="m337.79 243.86-21.738-37.493h-108.16l-21.738 37.493s0.93133 15.625 6.1736 29.905c8.061 21.953 15.744 30.734 15.744 30.734l26.606 10.276 27.051 2.4871v0.0423s0.18344-0.0212 0.24342-0.0212c0.06 0 0.23988 0.0212 0.23988 0.0212v-0.0423l27.055-2.4871 26.607-10.276s9.652-12.439 15.744-30.734c4.8048-14.436 6.1736-29.905 6.1736-29.905" fill="#d5e9f2"/>
  <path d="m316.06 206.37h-25.615l21.742 37.493s-1.3688 15.469-6.1771 29.905c-6.0889 18.295-8.8159 25.58-15.744 30.734-5.7185 4.258-26.606 10.276-26.606 10.276l-14.485 1.33 12.562 1.1571v0.0423s0.18344-0.0212 0.24342-0.0212c0.06 0 0.23988 0.0212 0.23988 0.0212v-0.0423l27.055-2.4871 26.607-10.276s9.652-12.439 15.744-30.734c4.8048-14.436 6.1736-29.905 6.1736-29.905l-21.738-37.493" fill="#a8d7e9"/>
  <path d="m186.16 243.86h151.64l-5.909 11.243z" fill="#a8d7e9"/>
  <path d="m216.59 268.73c-0.43039-5.4398 3.2844-12.943-2.9245-15.815-3.1926-1.4746-8.5831-2.0814-11.049 1.0866-0.91017 1.1677-1.3688 2.6388-1.4534 4.1628-0.889 3.8806 1.1994 9.5568 2.1731 13.035 1.15 4.0922 5.1329 18.493 12.471 14.573 4.9989-2.674 1.1042-13.014 0.78317-17.043" fill="#fff"/>
  <path d="m224.57 214.2c-3.302-4.706-7.941-3.1362-11.243 0.2787-7.3484 4.4732-15.152 22.751-4.0428 24.539 6.4064 1.0301 8.3679-6.7769 10.537-10.996 1.9897-3.8664 7.9869-9.2004 4.7484-13.822" fill="#fff"/>
  <path d="m342.3 241.47s15.533 18.214 22.959 23.551c5.6339 4.0534 10.816-16.775-8.5372-36.015-18.927-18.814-34.77-22.285-34.77-22.285l20.348 34.749" fill="#d5e9f2"/>
  <path d="m356.72 229.01c-18.927-18.814-34.77-22.285-34.77-22.285l1.6933 2.8928c6.0678 3.3408 13.857 8.6678 22.257 17.018 13.003 12.926 14.93 26.568 13.088 32.9 2.3319 2.2719 4.5261 4.2369 6.2689 5.4892 5.6339 4.0534 10.816-16.775-8.5372-36.015" fill="#a8d7e9"/>
  <path d="m203.74 206.37s-59.178-9.5568-66.463-6.5264c-7.2813 3.0304 1.1606 16.02 18.856 26.688 17.17 10.35 27.171 13.169 27.171 13.169l20.436-33.33" fill="#d5e9f2"/>
  <path d="m137.28 199.84c0.73025-0.30339 1.8627-0.47625 3.3126-0.54681 2.3671 5.461 9.7543 12.908 20.648 19.477 11.79 7.105 20.74 11.194 28.935 9.7261l-6.8686 11.201s-10.001-2.8187-27.171-13.169c-17.695-10.668-26.137-23.657-18.856-26.688" fill="#a8d7e9"/>
  <path d="m164.34 206.43c-1.6792-2.667-7.6235-4.2651-10.421-4.1169-1.4358 0.0776-2.3883 0.5715-2.9316 1.2488-1.3159 0.82903-1.1924 1.898-0.23283 2.9704 0.45861 0.9525 1.3899 1.7639 2.6776 2.032l-4e-3 -0.0494c5.4645 3.0304 15.155 4.6637 10.911-2.0849" fill="#fff"/>
  <path d="m207.77 307.74s9.6555 25.188 17.745 26.014c8.0857 0.82197 8.322-16.446 8.322-16.446l-26.067-9.5673" fill="#d5e9f2"/>
  <path d="m227.33 314.82c-0.0953 2.4448-0.84314 14.365-6.5299 15.875 1.6651 1.7357 3.3584 2.8928 4.9848 3.0586 8.0892 0.82197 8.3256-16.446 8.3256-16.446l-6.7804-2.4871" fill="#a8d7e9"/>
  <path d="m292.01 317.31s12.354 18.979 28.265 15.014c6.6534-1.658-3.8418-24.582-3.8418-24.582l-24.423 9.5673" fill="#d5e9f2"/>
  <path d="m316.44 307.74-6.6252 2.5964c2.667 6.7098 6.8862 19.135 2.0496 20.341-1.3053 0.32455-2.5859 0.49389-3.8382 0.53269 3.683 1.5416 7.8317 2.2154 12.256 1.1112 6.6534-1.658-3.8418-24.582-3.8418-24.582" fill="#a8d7e9"/>
  <g fill="#3aedb1">
   <path d="m245.38 156.23c-0.67028 0-1.2206-0.53975-1.2277-1.2136 0-7e-3 -0.0459-1.5134-0.94897-2.9528-1.1677-1.8556-3.2314-2.7975-6.1383-2.7975h-0.06c-6.2724 0.0282-7.1367 5.2846-7.1684 5.5104-0.10231 0.67028-0.73025 1.1324-1.4005 1.0301-0.67028-0.0988-1.1324-0.72672-1.0301-1.397 0.39158-2.6176 2.9034-7.5706 9.5885-7.5988l0.0705-4e-3c9.3416 0 9.5426 8.0998 9.5426 8.1809 0.0106 0.67733-0.53269 1.2347-1.2136 1.2418h-0.0141"/>
   <path d="m295.36 156.23c-0.67028 0-1.2206-0.53975-1.2277-1.2136 0-7e-3 -0.0459-1.5134-0.94897-2.9528-1.1677-1.8556-3.2314-2.7975-6.1383-2.7975h-0.06c-6.2724 0.0282-7.1367 5.2846-7.1684 5.5104-0.1023 0.67028-0.73025 1.1324-1.4005 1.0301-0.67027-0.0988-1.1324-0.72672-1.0301-1.397 0.39159-2.6176 2.9034-7.5706 9.5885-7.5988l0.0706-4e-3c9.3416 0 9.5426 8.0998 9.5462 8.1809 7e-3 0.67733-0.53623 1.2347-1.2171 1.2418h-0.0141"/>
   <path d="m267.36 167.07c0 3.8312-2.2119 6.9356-4.9389 6.9356-2.727 0-4.9389-3.1044-4.9389-6.9356 0-3.8312 2.2119-6.9391 4.9389-6.9391 2.727 0 4.9389 3.108 4.9389 6.9391"/>
  </g>
  <g fill="#fff">
   <path d="m47.07 113.5c1.7145 23.738 31.99 41.236 67.493 39.007 9.1863-0.57503 17.974-2.4024 26.113-5.4328 1.0266-0.381 2.2119-0.30691 3.1362 0.20109l29.718 16.305-10.562-27.788c-0.33514-0.889-0.0847-1.8627 0.66322-2.5753 8.703-8.2973 12.926-17.911 12.21-27.799-1.711-23.738-31.99-41.236-67.493-39.007-35.504 2.226-62.992 23.354-61.278 47.089zm130.51 58.797-35.98-19.738c-8.3679 2.9316-17.325 4.7131-26.652 5.2987-39.088 2.4518-72.457-17.261-74.383-43.949-1.9262-26.688 28.307-50.394 67.391-52.85 39.088-2.4518 72.457 17.261 74.383 43.949 0.77259 10.7-3.7006 21.474-12.622 30.505l12.809 33.704c0.41275 1.083-0.0564 2.2754-1.1712 2.9704-0.52211 0.32456-1.1289 0.50448-1.7427 0.54328-0.70556 0.0459-1.4182-0.0988-2.032-0.43392"/>
   <path d="m65.235 88.231c3.5454-0.59619 6.5652 1.0195 6.9321 3.1891 0.20108 1.1924-0.5715 2.2225-1.9297 2.4483-0.89606 0.1517-1.2206 0.01411-2.0461-0.94192-0.79728-0.91722-1.5311-1.0724-2.5753-0.89606-1.5028 0.254-2.4659 1.9156-2.0214 4.5685 0.41275 2.4412 1.651 3.9476 3.6548 3.6124 0.87842-0.14817 1.2735-0.47272 2.0073-1.9685 0.35278-0.72672 0.87489-1.1783 1.5875-1.2982 1.2488-0.21167 2.3742 0.47978 2.5859 1.7321 0.44097 2.6282-2.8751 4.8401-5.5457 5.2881-4.0287 0.68086-8.1703-1.1148-9.0876-6.5581-0.88547-5.2599 2.4518-8.5055 6.4382-9.1758"/>
   <path d="m80.002 90.746-0.04233 0.0071-0.70556 5.7609 3.2985-0.55386zm-1.1183 8.9218-0.14817 1.1606c-0.10583 0.89958-0.98778 1.3899-1.7392 1.5169-1.0866 0.18345-2.3283-0.4445-2.5188-1.5699-0.11642-0.69144 0.09525-1.8627 0.28222-2.9245l1.6969-9.4262c0.24694-1.33 0.75847-2.1237 1.9685-2.3283l1.5028-0.25047c1.21-0.20461 1.9509 0.37747 2.6211 1.5522l4.6884 8.3538c0.52211 0.94192 1.1077 1.9791 1.2206 2.6705 0.1905 1.1254-0.77964 2.1237-1.8627 2.3072-0.75142 0.127-1.7462-0.0494-2.1414-0.86078l-0.51858-1.0513-5.0518 0.85019"/>
   <path d="m97.874 85.208c-0.23636-1.4005 0.47272-2.5506 1.9332-2.794 1.4605-0.24694 2.5047 0.60678 2.7411 2.0038l1.8591 11.042c0.27517 1.6475-0.80433 2.4941-2.3283 2.7517-1.2735 0.2152-2.0214-0.02469-3.1962-1.3935l-5.0871-5.8843-0.04233 0.0071 0.99836 5.9267c0.27164 1.6087-0.41275 2.6458-1.9156 2.8998-1.5028 0.254-2.4871-0.50447-2.7587-2.1131l-1.7956-10.661c-0.27517-1.6263 0.508-2.727 2.3213-3.0304 1.1501-0.19403 2.0779 0.09878 2.854 1.0195l5.4328 6.5123 0.04233-0.0071-1.0583-6.2794"/>
   <path d="m115.55 82.509c-0.27164-1.6051 0.48331-2.7411 1.965-2.9916 1.4817-0.25047 2.5647 0.57856 2.8363 2.1837l1.7498 10.393c0.26811 1.6051-0.48331 2.7411-1.965 2.9916-1.4817 0.24694-2.5647-0.57856-2.8363-2.1837l-1.7498-10.393"/>
   <path d="m90.684 110.37c-0.27164-1.6051 0.48331-2.7411 1.965-2.9916 1.4817-0.24694 2.5647 0.57856 2.8328 2.1837l1.7498 10.393c0.27164 1.6051-0.4833 2.7411-1.965 2.9916-1.4817 0.25047-2.5612-0.57856-2.8328-2.1837l-0.58914-3.5066-4.6955 0.79022 0.58914 3.5066c0.27164 1.6051-0.48331 2.7411-1.965 2.9916-1.4817 0.24694-2.5647-0.57856-2.8328-2.1837l-1.7498-10.393c-0.27164-1.6051 0.47978-2.7411 1.9614-2.9916 1.4817-0.24695 2.5647 0.57855 2.8363 2.1837l0.47625 2.8399 4.6955-0.79022-0.47625-2.8399"/>
   <path d="m98.84 109.56c-0.33867-2.0038 0.39511-3.0057 2.2507-3.3196l7.6376-1.2841c1.4393-0.24342 2.2084 0.35983 2.3812 1.4005 0.17639 1.0442-0.34925 1.8627-1.7886 2.1061l-5.5739 0.93839 0.3563 2.1061 4.4662-0.75141c1.4393-0.24342 2.2049 0.3563 2.3812 1.4005 0.17639 1.0442-0.35278 1.8627-1.7921 2.1061l-4.4662 0.75142 0.4057 2.3989 5.7997-0.97719c1.4393-0.23989 2.2049 0.35983 2.3812 1.4041 0.17639 1.0407-0.35278 1.8591-1.7921 2.1026l-7.8669 1.3229c-1.8556 0.31397-2.8787-0.39511-3.2138-2.3989l-1.5663-9.3063"/>
   <path d="m125.14 113.65c1.2312-0.20814 2.1872 0.36336 2.3954 1.5946 0.20461 1.2312-0.51153 2.0814-1.7427 2.286l-7.0944 1.1959c-1.8556 0.31397-2.8751-0.39512-3.2138-2.3989l-1.6581-9.8496c-0.27164-1.6051 0.48331-2.7411 1.965-2.9916 1.4817-0.25047 2.5647 0.57856 2.8363 2.1837l1.4852 8.8265 5.0271-0.84667"/>
   <path d="m135.82 107.33c0.79375-0.13406 1.5416-0.77259 1.3723-1.7956-0.16933-1.0019-0.95603-1.4711-2.1272-1.2735l-2.42 0.4057 0.52563 3.1115zm-7.9798-2.6458c-0.33514-2.0038 0.39864-3.0092 2.2542-3.3196l4.3392-0.73025c3.6724-0.62088 6.7416 0.0212 7.426 4.0922 0.68439 4.0464-2.0073 5.6586-5.6797 6.2759l-2.3989 0.4057 0.40569 2.42c0.27164 1.6051-0.41275 2.6458-1.9156 2.8963-1.4993 0.254-2.4871-0.50447-2.7587-2.1096l-1.6722-9.9307"/>
   <path d="m107.27 130.46c0.31397-1.0619 1.0266-1.6757 1.9861-1.838 1.3159-0.22225 2.48 0.6985 2.6776 1.8874 0.0847 0.50094-0.0459 0.99483-0.32808 1.7498l-2.4553 6.5722 0.51859 3.0692c0.26811 1.6051-0.48331 2.7411-1.965 2.9916-1.4817 0.25047-2.5647-0.57503-2.8363-2.1837l-0.51506-3.0656-4.4732-5.4081c-0.51153-0.62089-0.79728-1.0442-0.88194-1.5452-0.20108-1.1924 0.5962-2.4412 1.9121-2.6599 0.95956-0.16228 1.8344 0.18344 2.48 1.083l2.6176 3.7006 1.263-4.3533"/>
   <path d="m121.13 130.4c-2.0038 0.33866-2.6846 2.1696-2.2719 4.6108 0.40922 2.4412 1.651 3.9476 3.6548 3.6124 2.0038-0.33867 2.6811-2.1696 2.2719-4.6108-0.41275-2.4412-1.651-3.9476-3.6548-3.6124zm-0.635-3.7571c3.9864-0.67028 8.2021 1.3053 9.0876 6.5617 0.91722 5.4469-2.4095 8.4949-6.4382 9.1758-4.0287 0.67733-8.1703-1.1148-9.0876-6.5617-0.88547-5.2599 2.4553-8.5019 6.4382-9.1758"/>
   <path d="m140.74 125.98c-0.27164-1.6051 0.4833-2.7411 1.965-2.9916 1.4817-0.24694 2.5647 0.57856 2.8363 2.1837l1.1571 6.8862c0.76553 4.5508-2.0496 6.6992-6.1807 7.3942-4.131 0.69497-7.493-0.41275-8.2585-4.9636l-1.1606-6.8862c-0.27164-1.6051 0.4833-2.7411 1.965-2.9916 1.4817-0.24694 2.5647 0.57856 2.8363 2.1837l1.15 6.8474c0.26458 1.5628 1.1677 2.4624 2.8575 2.1802 1.6898-0.28575 2.2472-1.4323 1.9861-2.9986l-1.1536-6.8439"/>
   <path d="m153.93 132.15c1.2947-0.21872 2.5118 0.64911 2.7305 1.9438 0.21872 1.2947-0.64911 2.5118-1.9438 2.7305-1.2947 0.21872-2.5118-0.64911-2.7305-1.9438-0.21872-1.2947 0.64911-2.5118 1.9438-2.7305zm-1.1077-7.7294c-0.60677 0.10231-1.277 0.44803-1.7004 1.3794-0.47977 1.0901-0.81138 1.2947-1.6051 1.4288-1.1042 0.18697-2.0144-0.23989-2.2049-1.3688-0.2293-1.3758 1.1642-3.9299 5.0024-4.5755 3.9229-0.65969 6.1807 1.0195 6.5546 3.2314 0.59266 3.5278-3.1821 4.1839-3.5878 5.7115-0.23637 0.89959-0.76906 1.1818-1.7498 1.3476-1.1889 0.19756-1.7674-0.43391-1.9262-1.3723-0.20461-1.21 0.508-2.0814 1.5205-2.8293 1.2206-0.91369 1.464-1.2347 1.33-2.0496-0.14464-0.85372-0.83962-1.0372-1.6334-0.90311"/>
  </g>
 </g>
</svg>
