<?xml version="1.0" encoding="UTF-8"?>
<!-- Created with Inkscape (http://www.inkscape.org/) -->
<svg width="234.26mm" height="269.29mm" version="1.1" viewBox="0 0 234.26 269.29" xmlns="http://www.w3.org/2000/svg">
 <g transform="translate(-19.749 83.501)">
  <path d="m220.17 176.11c0 5.3446-27.737 9.6767-61.953 9.6767-34.216 0-61.953-4.3321-61.953-9.6767 0-5.3446 27.737-9.6767 61.953-9.6767 34.216 0 61.953 4.3321 61.953 9.6767" fill="#2085b7"/>
  <path d="m202.74-24.407c-16.1-23.417-55.251-23.417-55.251-23.417s-39.152 0-55.251 23.417c-14.776 21.491-14.636 50.86-14.636 50.86l14.27 18.295h111.23l14.27-18.295s0.1404-29.369-14.636-50.86" fill="#d5e9f2"/>
  <path d="m202.76-24.407c-6.3119-9.1793-16.166-14.76-25.816-18.154 4.9925 3.1044 9.5374 7.0661 13.009 12.118 14.776 21.491 14.636 50.86 14.636 50.86l-14.27 18.295h-103.14l4.7092 6.036h111.23l14.27-18.295s0.14005-29.369-14.636-50.86" fill="#a8d7e9"/>
  <path d="m182.98-19.651c-15.002-11.342-55.983-11.342-70.985 0-16.287 12.315-15.734 41.712-15.734 41.712h102.45s0.55316-29.397-15.734-41.712" fill="#002b43"/>
  <path d="m96.694 22.061c1.0044-9.5885 4.3332-25.64 15.306-33.937 15.002-11.342 55.983-11.342 70.985 0 10.973 8.2973 14.302 24.349 15.306 33.937h0.42756s0.55316-29.397-15.734-41.712c-15.002-11.342-55.983-11.342-70.985 0-16.287 12.315-15.734 41.712-15.734 41.712h0.42757" fill="#000f16"/>
  <g fill="#d5e9f2">
   <path d="m161.95-43.432c0 1.21-0.98319 2.1943-2.1957 2.1943h-24.515c-1.2125 0-2.1953-0.98425-2.1953-2.1943v-7.687c0-1.21 0.98284-2.1943 2.1953-2.1943h24.515c1.2125 0 2.1957 0.98425 2.1957 2.1943v7.687"/>
   <path d="m140.97-47.457 3.2932-30.738h4.391l5.3696 30.917-13.054-0.17992"/>
   <path d="m151.88-78.195c0 2.9316-2.3756 5.3058-5.3054 5.3058-2.9305 0-5.3058-2.3742-5.3058-5.3058 0-2.928 2.3752-5.3058 5.3058-5.3058 2.9298 0 5.3054 2.3777 5.3054 5.3058"/>
  </g>
  <g fill="#a8d7e9">
   <path d="m149.89-82.336c0.33972 0.6985 0.53057 1.4817 0.53057 2.3142 0 2.9281-2.3756 5.3058-5.3054 5.3058-1.2534 0-2.4038-0.43744-3.3119-1.1642 0.85972 1.7709 2.6748 2.9916 4.7756 2.9916 2.9298 0 5.3054-2.3742 5.3054-5.3058 0-1.6757-0.77894-3.1715-1.9942-4.1416"/>
   <path d="m91.875 44.748h111.23l14.27-18.295h-139.77l14.27 18.295"/>
   <path d="m161.95-47.027c0 0.77258-0.49177 1.397-1.0978 1.397h-12.258c-0.60607 0-1.0975-0.62442-1.0975-1.397v-4.8895c0-0.77258 0.49142-1.397 1.0975-1.397h12.258c0.60607 0 1.0978 0.62442 1.0978 1.397v4.8895"/>
  </g>
  <path d="m125.6-37.731c-1.7833-3.4114-9.8492-1.457-12.484-0.2152-2.1537 1.016-6.0501 3.2702-8.5344 5.6586-1.9713 1.5699-3.732 3.3972-5.2624 5.4575-1.2718 1.711-3.6717 5.2352-2.1329 7.4824 1.6923 2.4694 4.5491 0.32808 5.9683-1.0971 3.6943-3.7148 6.5306-7.6906 11.539-9.9519 2.4634-1.1148 13.009-3.3126 10.906-7.3342" fill="#fff"/>
  <path d="m144.46-81.253c-2.498 0.60325-1.5427 5.8244 1.5307 3.0127 2.4433-2.2331-0.11677-3.6371-1.5307-3.0127" fill="#fff"/>
  <path d="m223.31 86.193-21.74-37.493h-108.16l-21.74 37.493s0.93098 15.625 6.1747 29.905c8.0606 21.953 15.744 30.738 15.744 30.738l26.607 10.273 27.051 2.4871v0.0459s0.18098-0.0212 0.24201-0.0212c0.0607 0 0.24165 0.0212 0.24165 0.0212v-0.0459l27.052-2.4871 26.607-10.273s9.6531-12.442 15.744-30.738c4.8062-14.432 6.1747-29.905 6.1747-29.905" fill="#d5e9f2"/>
  <path d="m201.57 48.699h-25.613l21.74 37.493s-1.3684 15.473-6.1743 29.905c-6.0918 18.295-8.8184 25.583-15.745 30.738-5.7203 4.2545-26.607 10.273-26.607 10.273l-14.487 1.3335 12.565 1.1536v0.0459s0.18098-0.0212 0.24201-0.0212c0.0607 0 0.24165 0.0212 0.24165 0.0212v-0.0459l27.052-2.4871 26.607-10.273s9.6531-12.442 15.744-30.738c4.8062-14.432 6.1747-29.905 6.1747-29.905l-21.74-37.493" fill="#a8d7e9"/>
  <path d="m71.673 86.193h151.64l-5.9108 11.247z" fill="#a8d7e9"/>
  <path d="m102.11 111.06c-0.43145-5.4398 3.2833-12.94-2.9274-15.812-3.1902-1.4781-8.5803-2.0814-11.049 1.0866-0.9084 1.1642-1.3674 2.6352-1.4527 4.1592-0.8897 3.8841 1.1994 9.5568 2.1749 13.035 1.1486 4.0958 5.1326 18.496 12.468 14.573 4.9996-2.6705 1.1049-13.014 0.78564-17.043" fill="#fff"/>
  <path d="m110.09 56.531c-3.2985-4.706-7.9389-3.1397-11.242 0.27517-7.3494 4.4732-15.153 22.754-4.0425 24.539 6.4054 1.0301 8.3679-6.7733 10.538-10.993 1.9904-3.87 7.9851-9.204 4.7463-13.822" fill="#fff"/>
  <path d="m89.256 48.699s-48.406-6.9815-55.69-3.9511c-7.2837 3.0304-9.6114 13.448 8.0836 24.112 17.17 10.35 27.169 13.169 27.169 13.169l20.437-33.33" fill="#d5e9f2"/>
  <path d="m33 44.748c0.72813-0.30339 7.8994-1.0231 9.3483-1.0936 2.3693 5.4645-6.4893 10.883 4.4055 17.448 11.788 7.1049 20.738 11.197 28.934 9.7261l-6.8686 11.201s-9.9991-2.8187-27.169-13.169c-17.695-10.664-15.933-21.082-8.6498-24.112" fill="#a8d7e9"/>
  <path d="m93.286 150.07s9.6562 25.188 17.745 26.01c8.0885 0.82198 8.3242-16.443 8.3242-16.443l-26.069-9.5673" fill="#d5e9f2"/>
  <path d="m112.85 157.15c-0.0935 2.4448-0.84173 14.365-6.5271 15.875 1.6644 1.7392 3.3563 2.8928 4.9848 3.0586 8.0885 0.82198 8.3245-16.443 8.3245-16.443l-6.7822-2.4906" fill="#a8d7e9"/>
  <path d="m177.53 159.64s12.355 18.979 28.264 15.014c6.6555-1.658-3.8414-24.582-3.8414-24.582l-24.423 9.5673" fill="#d5e9f2"/>
  <path d="m201.95 150.07-6.6255 2.5929c2.6691 6.7098 6.8862 19.138 2.0514 20.341-1.3056 0.32456-2.5866 0.49389-3.8389 0.5327 3.6841 1.5452 7.8317 2.2154 12.254 1.1148 6.6555-1.658-3.8414-24.582-3.8414-24.582" fill="#a8d7e9"/>
  <g fill="#3aedb1">
   <path d="m161.97 5.8334c-0.47096-0.0141-0.86783 0.35983-0.88195 0.83255-1e-3 0.0494-0.15487 3.8982-2.6007 5.9161-2.3368 1.9262-6.5737 2.5718-8.6307 2.5682-1.9216 0.0811-6.2936-0.64206-8.6307-2.5682-2.4458-2.0179-2.5989-5.8667-2.6007-5.9161-0.0138-0.47272-0.41098-0.84666-0.88159-0.83255-0.47378 0.0106-0.84737 0.40569-0.83397 0.88194 5e-3 0.18697 0.1651 4.6672 3.224 7.1896 3.1231 2.5753 7.1519 2.9669 9.3151 2.9669 2.582 0 7.0079-0.39158 10.131-2.9669 3.0593-2.5224 3.2191-7.0026 3.2244-7.1896 0.013-0.47625-0.36019-0.87136-0.83397-0.88194"/>
   <path d="m130.9-1.4409c-0.67204 0-1.2206-0.54328-1.2287-1.2171 0-7e-3 -0.0445-1.5099-0.94897-2.9492-1.1659-1.8591-3.2314-2.7975-6.1383-2.7975h-0.0589c-6.2734 0.0247-7.1367 5.2846-7.1702 5.5069-0.10089 0.67027-0.72848 1.1324-1.398 1.0336-0.67134-0.10231-1.1335-0.72673-1.0326-1.4005 0.3937-2.6141 2.9051-7.5706 9.5906-7.5988h0.0698c9.3423 0 9.5437 8.0962 9.5444 8.1774 8e-3 0.68086-0.53587 1.2347-1.2146 1.2453h-0.0145"/>
   <path d="m180.87-1.4409c-0.67204 0-1.2206-0.54328-1.2287-1.2171 0-7e-3 -0.0445-1.5099-0.94897-2.9492-1.1659-1.8591-3.2314-2.7975-6.1383-2.7975h-0.0586c-6.2738 0.0247-7.137 5.2846-7.1706 5.5069-0.1009 0.67027-0.72849 1.1324-1.3981 1.0336-0.67134-0.10231-1.1335-0.72673-1.0326-1.4005 0.3937-2.6141 2.9048-7.5706 9.5906-7.5988h0.0702c9.3419 0 9.543 8.0962 9.544 8.1774 8e-3 0.68086-0.53587 1.2347-1.2146 1.2453h-0.0145"/>
  </g>
  <path d="m80.449 12.145-57.808 47.808 0.05348 0.067c-3.363 3.5419-3.8956 8.7595-1.0537 12.196 2.8418 3.436 8.0688 3.8947 12.179 1.2559l0.05327 0.0635 57.808-47.808-11.232-13.582" fill="#2a56f4"/>
  <path d="m89.492 23.024-53.454 44.21-0.053269-0.0635c-4.1106 2.6388-9.3377 2.1802-12.18-1.2559-1.2419-1.4993-1.8393-3.3443-1.8378-5.2352-2.7476 3.4925-3.0213 8.2232-0.38128 11.416 2.8417 3.4361 8.0687 3.8947 12.179 1.2559l0.05327 0.0635 57.807-47.812-2.1336-2.5788" fill="#0643f2"/>
  <path d="m137.86 30.5c-17.842 14.757-44.269 12.256-59.025-5.5845-14.757-17.844-12.255-44.27 5.5869-59.027 17.842-14.757 44.269-12.256 59.026 5.588 14.756 17.84 12.255 44.267-5.5876 59.023" fill="#2a56f4"/>
  <path d="m151.4-13.816c2.7771 14.542-2.2465 30.11-14.459 40.21-17.842 14.757-44.269 12.256-59.026-5.5845-3.6629-4.4309-6.2615-9.3874-7.8267-14.566 1.2799 6.7028 4.2157 13.187 8.8717 18.817 14.757 17.844 41.183 20.345 59.026 5.588 13.413-11.095 18.155-28.783 13.414-44.464" fill="#0643f2"/>
  <path d="m132.63 20.961c-14.443 11.945-35.835 9.9201-47.78-4.5226-11.945-14.443-9.9205-35.835 4.5226-47.78 14.443-11.945 35.835-9.9201 47.78 4.5226 11.945 14.443 9.9205 35.835-4.5223 47.78" fill="#0643f2"/>
  <path d="m132.76 24.333c-14.436 11.938-35.817 9.9131-47.757-4.5226-11.939-14.436-9.9152-35.814 4.5205-47.756 14.436-11.938 35.818-9.913 47.757 4.5226 11.939 14.436 9.9155 35.814-4.5205 47.756" fill="#000f16"/>
  <path d="m33.498 61.759c-0.63147 0-1.2584-0.27164-1.6923-0.79728-0.77258-0.93133-0.64135-2.3178 0.29245-3.0903l39.499-32.667c0.40922-0.33867 0.90488-0.50448 1.3974-0.50448 0.63182 0 1.2584 0.27164 1.6926 0.79728 0.77223 0.93486 0.64135 2.3178-0.29281 3.0903l-39.499 32.667c-0.40922 0.33867-0.90488 0.50447-1.3977 0.50447" fill="#6a89f7"/>
  <path d="m131.88 3.0465c-1.5596 0-2.8328-1.2559-2.8515-2.8222-3.5e-4 -0.0176-0.10301-3.5066-2.202-6.8474-2.7065-4.3074-7.4994-6.4946-14.246-6.4946-0.0455 0-0.0907 0-0.13617 4e-3 -14.558 0.06-16.562 12.263-16.64 12.781-0.23424 1.5558-1.6905 2.6317-3.2445 2.3954-1.5579-0.23636-2.6303-1.6863-2.3961-3.2456 0.91405-6.0713 6.7412-17.568 22.256-17.635h0.16228c21.68 0 22.147 18.789 22.149 18.979 0.018 1.5734-1.2439 2.8646-2.819 2.8822l-0.0332 4e-3" fill="#3aedb1"/>
  <path d="m91.36 7.8689c-1.5766 0-3.1284-0.48331-4.4073-1.5769-3.7282-3.1962-3.7867-9.585-3.0505-14.002 1.0735-6.4382 5.7051-13.335 11.099-16.813 6.9042-4.4521 11.134-5.1541 14.172-5.1541 0.45755 0 0.88865 0.0176 1.2972 0.0388 3.0558 0.15875 8.1407 0.64205 8.4652 4.7025 0.33232 4.1628-5.4017 4.9212-8.2307 5.9302-0.26917 0.0952-0.53058 0.19756-0.78422 0.29986-13.649 1.2136-18.895 11.79-19.758 17.522-0.23424 1.5593 0.8382 3.0092 2.3961 3.2456 0.14358 0.0212 0.28646 0.0317 0.42757 0.0317 1.3854 0 2.6042-1.0125 2.8169-2.4271 0.05433-0.35983 1.0291-6.3112 6.446-9.9624-0.10371 0.27164-0.20496 0.55033-0.30409 0.83608-1.4852 4.2721-0.72531 9.6273-3.2868 13.451-1.5589 2.3248-4.4693 3.877-7.2997 3.877" fill="#4d575c"/>
  <path d="m92.988 2.094c-0.14111 0-0.28399-0.0106-0.42757-0.0317-1.5579-0.23636-2.6303-1.6863-2.3961-3.2456 0.8629-5.7326 6.1087-16.309 19.758-17.522-3.9497 1.6192-6.084 4.2369-7.6712 8.4102-5.4169 3.6512-6.3916 9.6026-6.446 9.9624-0.21272 1.4146-1.4316 2.4271-2.8169 2.4271" fill="#75f2c9"/>
  <path d="m225.9 85.335s15.534 18.21 22.961 23.551c5.6339 4.0499 10.815-16.775-8.5397-36.019-18.925-18.814-34.769-22.285-34.769-22.285l20.349 34.752" fill="#d5e9f2"/>
  <path d="m240.32 72.868c-18.925-18.814-34.769-22.285-34.769-22.285l1.693 2.8928c6.0695 3.3443 13.86 8.6678 22.258 17.018 13.002 12.926 14.932 26.568 13.089 32.9 2.3329 2.2719 4.5247 4.2369 6.2692 5.4928 5.6339 4.0499 10.815-16.775-8.5397-36.019" fill="#a8d7e9"/>
 </g>
</svg>
