<?xml version="1.0" encoding="UTF-8"?>
<!-- Created with Inkscape (http://www.inkscape.org/) -->
<svg width="297.39mm" height="268.38mm" version="1.1" viewBox="0 0 297.39 268.38" xmlns="http://www.w3.org/2000/svg">
 <g transform="translate(22.979 -.31024)">
  <path d="m192.34 259.01c0 5.3411-27.739 9.6767-61.955 9.6767s-61.955-4.3356-61.955-9.6767c0-5.3446 27.739-9.6767 61.955-9.6767s61.955 4.3321 61.955 9.6767" fill="#2085b7"/>
  <path d="m-21.594 31.676-1.3854 60.639s0 3.4749 3.6456 3.4325c14.806-0.16933 1.2792-59.214 1.2792-59.214l-3.5394-4.8578" fill="#2a56f4"/>
  <path d="m-13.807 27.464c-2.0592 0.63853-4.8327 1.5522-5.2649 3.9688-0.47696 2.6705 1.6672 5.0906 4.4418 4.5967 2.9464-0.52564 5.836-3.4502 4.7329-6.5687-0.5334-1.5064-2.8903-2.8434-4.3801-1.8768l0.47025-0.11994" fill="#002b43"/>
  <path d="m27.305 92.128 4.7484-7.2249v-56.85l-44.457-0.79728-4.8472 8.1033 42.602 1.1748 1.9544 55.594" fill="#d5e9f2"/>
  <path d="m27.305 92.128-2.4694 3.6195-41.699-3.6195-2.4694-53.721 2.4694-3.616h44.169v57.337" fill="#0643f2"/>
  <path d="m179.12 59.401c-16.101-23.417-55.252-23.417-55.252-23.417s-39.151 0-55.252 23.417c-14.774 21.495-14.637 50.86-14.637 50.86l14.273 18.295h111.23l14.27-18.295s0.14111-29.365-14.633-50.86" fill="#d5e9f2"/>
  <path d="m179.14 59.401c-6.3112-9.1793-16.168-14.76-25.816-18.154 4.9918 3.108 9.5356 7.0661 13.01 12.118 14.774 21.491 14.633 50.86 14.633 50.86l-14.27 18.295h-103.13l4.7096 6.036h111.23l14.273-18.295s0.13758-29.365-14.637-50.86" fill="#a8d7e9"/>
  <path d="m159.36 64.159c-15.004-11.345-55.982-11.345-70.986 0-16.288 12.315-15.734 41.712-15.734 41.712h102.45s0.55034-29.397-15.734-41.712" fill="#002b43"/>
  <path d="m73.064 105.87c1.0054-9.592 4.3356-25.643 15.307-33.937 15.004-11.345 55.982-11.345 70.986 0 10.971 8.2938 14.302 24.345 15.304 33.937h0.43038s0.55034-29.397-15.734-41.712c-15.004-11.345-55.982-11.345-70.986 0-16.288 12.315-15.734 41.712-15.734 41.712h0.42686" fill="#000f16"/>
  <g fill="#d5e9f2">
   <path d="m138.32 40.375c0 1.2136-0.98425 2.1943-2.1943 2.1943h-24.518c-1.21 0-2.1943-0.98072-2.1943-2.1943v-7.6835c0-1.2136 0.98425-2.1943 2.1943-2.1943h24.518c1.21 0 2.1943 0.98072 2.1943 2.1943v7.6835"/>
   <path d="m117.34 36.35 3.2914-30.734h4.3921l5.3693 30.917-13.053-0.18344"/>
   <path d="m128.26 5.616c0 2.9281-2.3777 5.3058-5.3058 5.3058-2.9316 0-5.3058-2.3777-5.3058-5.3058 0-2.9316 2.3742-5.3058 5.3058-5.3058 2.928 0 5.3058 2.3742 5.3058 5.3058"/>
  </g>
  <g fill="#a8d7e9">
   <path d="m126.26 1.4709c0.3422 0.6985 0.5327 1.4852 0.5327 2.3142 0 2.9316-2.3777 5.3058-5.3058 5.3058-1.2524 0-2.406-0.43392-3.3126-1.1606 0.86078 1.7709 2.6741 2.9916 4.7766 2.9916 2.928 0 5.3058-2.3777 5.3058-5.3058 0-1.6792-0.77964-3.1715-1.9967-4.1451"/>
   <path d="m68.248 128.56h111.23l14.27-18.295h-139.77l14.273 18.295"/>
   <path d="m138.32 36.784c0 0.76906-0.49036 1.397-1.0971 1.397h-12.259c-0.60678 0-1.0971-0.62794-1.0971-1.397v-4.8895c0-0.77258 0.49036-1.397 1.0971-1.397h12.259c0.60678 0 1.0971 0.62442 1.0971 1.397v4.8895"/>
  </g>
  <path d="m101.97 46.076c-1.7815-3.4114-9.846-1.457-12.485-0.21167-2.152 1.016-6.0501 3.2702-8.5337 5.6586-1.9685 1.5699-3.7324 3.3972-5.2599 5.4575-1.2735 1.711-3.6724 5.2352-2.1343 7.4824 1.6933 2.4694 4.5508 0.32808 5.969-1.1007 3.6936-3.7112 6.5299-7.6906 11.539-9.9519 2.4624-1.1112 13.007-3.3126 10.904-7.3342" fill="#fff"/>
  <path d="m120.84 2.5574c-2.5012 0.60325-1.5452 5.8208 1.5275 3.0127 2.4448-2.2331-0.11641-3.6407-1.5275-3.0127" fill="#fff"/>
  <path d="m199.68 170-21.738-37.493h-108.16l-21.738 37.493s0.93133 15.625 6.1736 29.905c8.061 21.953 15.744 30.734 15.744 30.734l26.606 10.276 27.051 2.4871v0.0423s0.18345-0.0212 0.24342-0.0212c0.06 0 0.23989 0.0212 0.23989 0.0212v-0.0423l27.055-2.4871 26.606-10.276s9.652-12.439 15.744-30.734c4.8048-14.436 6.1736-29.905 6.1736-29.905" fill="#d5e9f2"/>
  <path d="m177.94 132.51h-25.615l21.742 37.493s-1.3688 15.469-6.1771 29.905c-6.089 18.295-8.8159 25.58-15.744 30.734-5.7185 4.258-26.606 10.276-26.606 10.276l-14.485 1.33 12.562 1.1571v0.0423s0.18345-0.0212 0.24342-0.0212c0.06 0 0.23989 0.0212 0.23989 0.0212v-0.0423l27.055-2.4871 26.606-10.276s9.652-12.439 15.744-30.734c4.8048-14.436 6.1736-29.905 6.1736-29.905l-21.738-37.493" fill="#a8d7e9"/>
  <path d="m48.045 170h151.64l-5.909 11.243z" fill="#a8d7e9"/>
  <path d="m78.482 194.87c-0.43039-5.4398 3.2844-12.943-2.9245-15.815-3.1926-1.4746-8.5831-2.0814-11.049 1.0866-0.91017 1.1677-1.3688 2.6388-1.4534 4.1628-0.889 3.8806 1.1994 9.5568 2.1731 13.035 1.1501 4.0922 5.1329 18.493 12.471 14.573 4.9989-2.674 1.1042-13.014 0.78316-17.043" fill="#fff"/>
  <path d="m86.462 140.34c-3.302-4.7061-7.941-3.1362-11.243 0.2787-7.3484 4.4732-15.152 22.751-4.0428 24.539 6.4064 1.0301 8.3679-6.7769 10.537-10.996 1.9897-3.8664 7.9869-9.2004 4.7484-13.822" fill="#fff"/>
  <path d="m184.25 132.51s47.565-29.566 56.713-29.566c9.1475 0 5.4892 16.464-9.1475 34.449-14.203 17.452-28.173 27.855-28.173 27.855l-19.392-32.738" fill="#d5e9f2"/>
  <path d="m240.96 102.94c-0.9137 0-2.2119 0.29633-3.8065 0.82903-0.26105 6.4311-5.1118 16.926-14.122 28-9.7508 11.98-19.392 20.638-24.479 24.888l5.087 8.5866s13.97-10.403 28.173-27.855c14.637-17.985 18.295-34.449 9.1475-34.449" fill="#a8d7e9"/>
  <path d="m230.73 109.82c-1.2488-0.82197-4.8824 1.0301-5.9126 1.5346-1.7251 0.8502-6.1807 3.6512-7.112 6.3253-1.0336 1.4005-1.2171 2.7834 0.49389 3.6336 2.5823 1.2841 9.7684-4.5367 11.328-6.4558 0.97367-1.1924 2.9175-3.9158 1.203-5.0377" fill="#fff"/>
  <path d="m62.84 132.51s-47.568-29.566-56.715-29.566c-9.1475 0-5.4885 16.464 9.1475 34.449 14.202 17.452 28.175 27.855 28.175 27.855l19.392-32.738" fill="#d5e9f2"/>
  <path d="m6.1251 102.94c0.91405 0 2.2126 0.29633 3.8079 0.82903 0.26211 6.4311 5.11 16.926 14.123 28 9.7473 11.98 19.389 20.638 24.476 24.888l-5.0835 8.5866s-13.974-10.403-28.175-27.855c-14.636-17.985-18.295-34.449-9.1475-34.449" fill="#a8d7e9"/>
  <path d="m16.358 109.82c1.252-0.82197 4.8856 1.0301 5.9157 1.5346 1.7251 0.8502 6.1807 3.6512 7.1085 6.3253 1.0372 1.4005 1.2171 2.7834-0.49389 3.6336-2.5823 1.2841-9.7684-4.5367-11.328-6.4558-0.97014-1.1924-2.9154-3.9158-1.2026-5.0377" fill="#fff"/>
  <path d="m69.659 233.88s9.6555 25.188 17.745 26.01c8.0857 0.8255 8.322-16.443 8.322-16.443l-26.067-9.5673" fill="#d5e9f2"/>
  <path d="m89.221 240.96c-0.0952 2.4448-0.84314 14.362-6.5299 15.875 1.6651 1.7357 3.3584 2.8892 4.9848 3.0551 8.0892 0.8255 8.3256-16.443 8.3256-16.443l-6.7804-2.4871" fill="#a8d7e9"/>
  <path d="m153.9 243.45s12.354 18.979 28.265 15.014c6.6534-1.6581-3.8418-24.582-3.8418-24.582l-24.423 9.5673" fill="#d5e9f2"/>
  <path d="m178.33 233.88-6.6252 2.5964c2.667 6.7063 6.8862 19.135 2.0496 20.341-1.3053 0.32456-2.5859 0.49389-3.8382 0.5327 3.683 1.5416 7.8317 2.2154 12.256 1.1112 6.6534-1.6581-3.8418-24.582-3.8418-24.582" fill="#a8d7e9"/>
  <path d="m138.34 89.641c-0.47272-0.01411-0.86783 0.35983-0.88194 0.83256-4e-3 0.05292-0.15523 3.8982-2.6035 5.9161-2.3354 1.9297-6.5722 2.5753-8.629 2.5682-1.9226 0.08467-6.2936-0.63853-8.6325-2.5682-2.4448-2.0179-2.5964-5.8632-2.6-5.9161-0.0141-0.47272-0.40923-0.84667-0.88195-0.83256-0.47272 0.01411-0.84667 0.40922-0.83255 0.88194 4e-3 0.1905 0.1658 4.6672 3.2244 7.1931 3.1221 2.5753 7.1508 2.9669 9.3133 2.9669 2.5823 0 7.0097-0.39158 10.132-2.9669 3.0586-2.5259 3.2173-7.0026 3.2244-7.1931 0.0141-0.47272-0.35984-0.86783-0.83256-0.88194" fill="#3aedb1"/>
  <path d="m24.835 95.747h-44.169v-57.341h44.169v57.341" fill="#2a56f4"/>
  <path d="m-19.333 38.407s-3.5341-4.7272-1.7639-7.9093c2.4694-4.445 6.7028-4.445 6.7028-4.445h48.332l-0.22225 56.314-1.7251 3.2773 0.0635-57.591-45.769 0.20461s-2.2056 0.41628-3.6188 2.734c-1.9988 3.2808 0.47061 3.7994 0.47061 3.7994l-2.4694 3.616" fill="#0643f2"/>
  <path d="m32.053 28.053-4.7484 6.7381v57.337l4.6849-7.1261 0.0635-56.949" fill="#a8d7e9"/>
  <path d="m2.7913 55.354h-0.08079l-3.2307 10.89h6.5419zm-5.0514 16.856-0.6611 2.1943c-0.49918 1.6969-2.3604 2.3601-3.8509 2.3601-2.1548 0-4.3501-1.6157-4.3501-3.8523 0-1.3652 0.78564-3.5595 1.4905-5.5457l6.3362-17.646c0.91052-2.4836 2.1548-3.8488 4.5558-3.8488h2.981c2.4045 0 3.6456 1.3653 4.5558 3.8488l6.3366 17.646c0.70485 1.9861 1.4905 4.1804 1.4905 5.5457 0 2.2366-2.1922 3.8523-4.3469 3.8523-1.4905 0-3.3553-0.66322-3.8509-2.3601l-0.66428-2.1943h-10.022" fill="#fff"/>
  <path d="m218.88 30.466-1.3864 60.639s0 3.4749 3.6477 3.4325c14.806-0.16581 1.2771-59.214 1.2771-59.214l-3.5384-4.8578" fill="#2a56f4"/>
  <path d="m226.66 26.257c-2.0567 0.635-4.833 1.5487-5.2634 3.9688-0.47625 2.667 1.6651 5.0906 4.4415 4.5932 2.9457-0.52564 5.8349-3.4466 4.7308-6.5652-0.5327-1.5099-2.8892-2.8469-4.378-1.8803l0.46919-0.11642" fill="#002b43"/>
  <path d="m267.78 90.921 4.7484-7.2284v-56.85l-44.457-0.79728-4.8472 8.1033 42.601 1.1748 1.9544 55.598" fill="#d5e9f2"/>
  <path d="m267.78 90.921-2.4694 3.616-41.698-3.616-2.4694-53.721 2.4694-3.6195h44.168v57.341" fill="#0643f2"/>
  <path d="m265.31 94.537h-44.168v-57.337h44.168v57.337" fill="#2a56f4"/>
  <path d="m221.14 37.2s-3.5348-4.7272-1.7639-7.9128c2.4694-4.4415 6.7028-4.4415 6.7028-4.4415h48.331l-0.22225 56.314-1.7251 3.2738 0.0635-57.591-45.769 0.20814s-2.2049 0.41628-3.6195 2.734c-1.9967 3.2773 0.47273 3.7959 0.47273 3.7959l-2.4694 3.6195" fill="#0643f2"/>
  <path d="m272.52 26.843-4.7484 6.7381v57.341l4.6849-7.1261 0.0635-56.952" fill="#a8d7e9"/>
  <g fill="#fff">
   <path d="m239.41 52.373c0.10231 2.4765 1.9579 7.5459 5.2987 12.622 4.3674 6.6358 11.511 11.755 11.511 11.755l1.1359-4.759s-6.8404-1.3582-11.285-7.4295c-5.4645-7.4612-5.4434-12.188-5.4434-12.188h-1.2171"/>
   <path d="m248.38 52.373c0.0317 2.4765-1.5416 7.6412-4.6002 12.894-3.997 6.8651-10.848 12.368-10.848 12.368l-1.397-4.6884s6.7557-1.7321 10.862-8.0363c5.0482-7.7541 4.7696-12.471 4.7696-12.471l1.2136-0.06703"/>
   <path d="m252.71 52.941h-17.946v-2.7234h17.946v2.7234"/>
   <path d="m245.15 52.567h-1.9156v-5.1999h1.9156v5.1999"/>
  </g>
  <path d="m96.76 76.75c0 2.7975-2.2648 5.0624-5.0588 5.0624-2.7975 0-5.0624-2.2648-5.0624-5.0624 0-2.794 2.2648-5.0588 5.0624-5.0588 2.794 0 5.0588 2.2648 5.0588 5.0588" fill="#3aedb1"/>
  <path d="m161.09 76.75c0 2.7975-2.2684 5.0624-5.0624 5.0624s-5.0624-2.2648-5.0624-5.0624c0-2.794 2.2684-5.0588 5.0624-5.0588s5.0624 2.2648 5.0624 5.0588" fill="#3aedb1"/>
 </g>
</svg>
