<?xml version="1.0" encoding="UTF-8"?>
<!-- Created with Inkscape (http://www.inkscape.org/) -->
<svg width="322.42mm" height="269.08mm" version="1.1" viewBox="0 0 322.42 269.08" xmlns="http://www.w3.org/2000/svg">
 <g transform="translate(269.35 180.71)">
  <path d="m-73.864 78.694c0 5.3446-27.739 9.6767-61.955 9.6767s-61.952-4.3321-61.952-9.6767c0-5.3446 27.736-9.6767 61.952-9.6767s61.955 4.3321 61.955 9.6767" fill="#2085b7"/>
  <path d="m-86.779-121.62c-16.101-23.417-55.252-23.417-55.252-23.417s-39.151 0-55.251 23.417c-14.776 21.491-14.636 50.86-14.636 50.86l14.27 18.295h111.23l14.27-18.295s0.14111-29.369-14.633-50.86" fill="#d5e9f2"/>
  <path d="m-86.758-121.62c-6.3112-9.1828-16.168-14.764-25.816-18.157 4.9918 3.108 9.5356 7.0697 13.01 12.118 14.774 21.495 14.633 50.86 14.633 50.86l-14.27 18.295h-103.13l4.7089 6.0396h111.24l14.27-18.295s0.13758-29.369-14.637-50.86" fill="#a8d7e9"/>
  <path d="m-106.54-116.86c-15.004-11.342-55.982-11.342-70.986 0-16.288 12.315-15.734 41.712-15.734 41.712h102.45s0.55386-29.397-15.734-41.712" fill="#002b43"/>
  <path d="m-192.83-75.149c1.0054-9.5885 4.3356-25.64 15.307-33.937 15.004-11.342 55.982-11.342 70.986 0 10.971 8.2973 14.302 24.349 15.307 33.937h0.42686s0.55386-29.397-15.734-41.712c-15.004-11.342-55.982-11.342-70.986 0-16.288 12.315-15.734 41.712-15.734 41.712h0.42686" fill="#000f16"/>
  <g fill="#d5e9f2">
   <path d="m-127.58-140.65c0 1.2136-0.98425 2.1978-2.1943 2.1978h-24.518c-1.21 0-2.1943-0.98425-2.1943-2.1978v-7.6835c0-1.21 0.98425-2.1943 2.1943-2.1943h24.518c1.21 0 2.1943 0.98425 2.1943 2.1943v7.6835"/>
   <path d="m-148.56-144.67 3.2914-30.734h4.3921l5.3693 30.917-13.053-0.18345"/>
   <path d="m-137.64-175.4c0 2.9316-2.3777 5.3058-5.3058 5.3058-2.9316 0-5.3058-2.3742-5.3058-5.3058 0-2.9316 2.3742-5.3058 5.3058-5.3058 2.928 0 5.3058 2.3742 5.3058 5.3058"/>
  </g>
  <g fill="#a8d7e9">
   <path d="m-139.64-179.55c0.3422 0.70203 0.5327 1.4852 0.5327 2.3142 0 2.9316-2.3777 5.3058-5.3058 5.3058-1.2524 0-2.406-0.43391-3.3126-1.1606 0.86078 1.771 2.6741 2.9916 4.7766 2.9916 2.928 0 5.3058-2.3742 5.3058-5.3058 0-1.6757-0.77964-3.1715-1.9967-4.1451"/>
   <path d="m-197.65-52.462h111.23l14.27-18.295h-139.77l14.27 18.295"/>
   <path d="m-127.58-144.24c0 0.77258-0.49036 1.397-1.0971 1.397h-12.259c-0.60678 0-1.0971-0.62442-1.0971-1.397v-4.8895c0-0.77258 0.49036-1.397 1.0971-1.397h12.259c0.60678 0 1.0971 0.62442 1.0971 1.397v4.8895"/>
  </g>
  <path d="m-163.92-134.94c-1.7851-3.4114-9.8496-1.4605-12.485-0.2152-2.1555 1.016-6.0501 3.2702-8.5372 5.6586-1.9685 1.5699-3.7289 3.3972-5.2599 5.4575-1.2735 1.711-3.6724 5.2352-2.1343 7.4824 1.6933 2.4694 4.5508 0.32808 5.969-1.0971 3.6936-3.7148 6.5299-7.6941 11.539-9.9554 2.4624-1.1112 13.007-3.3091 10.908-7.3307" fill="#fff"/>
  <path d="m-145.06-178.46c-2.5012 0.60325-1.5452 5.8244 1.5275 3.0127 2.4448-2.2331-0.11641-3.6407-1.5275-3.0127" fill="#fff"/>
  <path d="m-66.212-11.017-21.738-37.493h-108.16l-21.74 37.493s0.93063 15.625 6.1743 29.905c8.061 21.953 15.745 30.734 15.745 30.734l26.606 10.276 27.051 2.4871v0.04586s0.18345-0.02469 0.24342-0.02469c0.06 0 0.24342 0.02469 0.24342 0.02469v-0.04586l27.051-2.4871 26.606-10.276s9.652-12.439 15.744-30.734c4.8048-14.436 6.1736-29.905 6.1736-29.905" fill="#d5e9f2"/>
  <path d="m-87.95-48.511h-25.615l21.742 37.493s-1.3688 15.469-6.1736 29.905c-6.0925 18.295-8.8194 25.58-15.748 30.734-5.7185 4.258-26.606 10.276-26.606 10.276l-14.485 1.3335 12.562 1.1536v0.04586s0.18345-0.02469 0.24342-0.02469c0.06 0 0.24342 0.02469 0.24342 0.02469v-0.04586l27.051-2.4871 26.606-10.276s9.652-12.439 15.744-30.734c4.8048-14.436 6.1736-29.905 6.1736-29.905l-21.738-37.493" fill="#a8d7e9"/>
  <path d="m-217.85-11.017h151.64l-5.909 11.243z" fill="#a8d7e9"/>
  <path d="m-187.41 13.846c-0.43392-5.4398 3.2808-12.94-2.928-15.815-3.1926-1.4746-8.581-2.0814-11.049 1.0901-0.90875 1.1642-1.3674 2.6353-1.4527 4.1593-0.8897 3.8806 1.1994 9.5568 2.1749 13.035 1.1483 4.0958 5.1322 18.496 12.469 14.573 4.9989-2.6741 1.1042-13.014 0.78669-17.043" fill="#fff"/>
  <path d="m-179.43-40.682c-3.2985-4.7061-7.941-3.1362-11.243 0.27869-7.3494 4.4732-15.153 22.751-4.0425 24.539 6.4061 1.0301 8.3675-6.7733 10.537-10.993 1.9897-3.87 7.9869-9.204 4.7484-13.825" fill="#fff"/>
  <path d="m-81.646-48.511s47.565-29.566 56.713-29.566 5.4892 16.468-9.1475 34.452c-14.199 17.448-28.173 27.852-28.173 27.852l-19.392-32.738" fill="#d5e9f2"/>
  <path d="m-24.934-78.077c-0.91369 0-2.2119 0.29633-3.8065 0.82903-0.26106 6.4311-5.1118 16.926-14.122 28-9.7508 11.98-19.392 20.638-24.479 24.892l5.0871 8.5831s13.974-10.403 28.173-27.852c14.637-17.985 18.295-34.452 9.1475-34.452" fill="#a8d7e9"/>
  <path d="m-200.27-48.511s-59.178-9.5568-66.462-6.5264c-7.2834 3.0304 1.161 16.02 18.856 26.688 17.17 10.35 27.169 13.169 27.169 13.169l20.437-33.33" fill="#d5e9f2"/>
  <path d="m-266.73-55.037c0.72778-0.30339 1.8609-0.47625 3.3098-0.5468 2.3696 5.461 9.7554 12.908 20.65 19.477 11.788 7.1049 20.738 11.194 28.934 9.7261l-6.8686 11.201s-9.9988-2.8187-27.169-13.169c-17.695-10.668-26.139-23.657-18.856-26.688" fill="#a8d7e9"/>
  <path d="m-239.66-48.451c-1.6778-2.667-7.6232-4.2651-10.42-4.1169-1.4379 0.08114-2.3901 0.5715-2.9316 1.2524-1.318 0.8255-1.1924 1.8944-0.23459 2.9669 0.45966 0.9525 1.3924 1.7639 2.6786 2.032l-5e-3 -0.04939c5.4649 3.0339 15.156 4.6637 10.912-2.0849" fill="#fff"/>
  <path d="m-35.164-71.198c-1.2524-0.81844-4.886 1.0301-5.9161 1.5381-1.7251 0.84667-6.1807 3.6477-7.112 6.3253-1.0336 1.397-1.2171 2.7799 0.49389 3.6301 2.5823 1.2841 9.7684-4.5367 11.328-6.4523 0.97367-1.1959 2.9175-3.9194 1.2065-5.0412" fill="#fff"/>
  <path d="m-196.24 52.86s9.6566 25.188 17.746 26.014c8.0857 0.82197 8.322-16.443 8.322-16.443l-26.068-9.5709" fill="#d5e9f2"/>
  <path d="m-176.67 59.94c-0.0952 2.4448-0.84314 14.365-6.5299 15.875 1.6651 1.7357 3.3584 2.8928 4.9848 3.0586 8.0892 0.82197 8.3256-16.443 8.3256-16.443l-6.7804-2.4906" fill="#a8d7e9"/>
  <path d="m-111.99 62.431s12.354 18.979 28.265 15.014c6.6534-1.6616-3.8418-24.585-3.8418-24.585l-24.423 9.5709" fill="#d5e9f2"/>
  <path d="m-87.569 52.86-6.6252 2.5964c2.667 6.7098 6.8862 19.135 2.0496 20.341-1.3053 0.32456-2.5859 0.49389-3.8382 0.53269 3.683 1.5452 7.8317 2.2154 12.256 1.1148 6.6534-1.6616-3.8418-24.585-3.8418-24.585" fill="#a8d7e9"/>
  <g fill="#3aedb1">
   <path d="m-158.63-98.654c-0.67028 0-1.2206-0.53975-1.2277-1.2136 0-0.0071-0.0459-1.5099-0.94898-2.9528-1.1677-1.8556-3.2314-2.7975-6.1383-2.7975h-0.06c-6.2724 0.0282-7.1367 5.2846-7.1684 5.5104-0.1023 0.67027-0.73025 1.1324-1.4005 1.0301-0.67027-0.09878-1.1324-0.72672-1.0301-1.397 0.39159-2.6141 2.9034-7.5706 9.5885-7.5988h0.0706c9.3416 0 9.5426 8.0963 9.5462 8.1774 7e-3 0.67733-0.53623 1.2347-1.2171 1.2418h-0.0141"/>
   <path d="m-108.65-98.654c-0.67028 0-1.2206-0.53975-1.2277-1.2136 0-0.0071-0.0423-1.5099-0.94897-2.9528-1.1642-1.8556-3.2314-2.7975-6.1383-2.7975h-0.06c-6.2724 0.0282-7.1367 5.2846-7.1684 5.5104-0.10231 0.67027-0.73025 1.1324-1.397 1.0301-0.67381-0.09878-1.136-0.72672-1.0336-1.397 0.39158-2.6141 2.9034-7.5706 9.5885-7.5988h0.0705c9.3416 0 9.5462 8.0963 9.5462 8.1774 7e-3 0.67733-0.53622 1.2347-1.2171 1.2418h-0.0141"/>
   <path d="m-136.64-87.81c0 3.8312-2.2119 6.9391-4.9389 6.9391s-4.9389-3.108-4.9389-6.9391 2.2119-6.9391 4.9389-6.9391 4.9389 3.108 4.9389 6.9391"/>
  </g>
  <g fill="#fff">
   <path d="m-30.913-151.09c0.25753-1.524 1.2876-2.3036 2.6917-2.0638s2.1167 1.3159 1.8556 2.8399l-1.6757 9.8531c-0.26106 1.5205-1.2912 2.3036-2.6952 2.0638-1.4041-0.23989-2.1167-1.3159-1.8556-2.8399l0.56797-3.3232-4.4521-0.75847-0.56797 3.3232c-0.25753 1.5205-1.2876 2.3036-2.6917 2.0638-1.4041-0.23989-2.1167-1.3159-1.8556-2.8399l1.6757-9.8531c0.26106-1.5205 1.2876-2.3036 2.6952-2.0638 1.4041 0.23989 2.1167 1.3159 1.8556 2.8399l-0.45861 2.6917 4.4521 0.75847 0.45861-2.6917"/>
   <path d="m-23.357-149.27c0.32456-1.8979 1.2912-2.5682 3.0515-2.2684l7.2425 1.2347c1.3617 0.23284 1.8627 1.009 1.6933 1.9967-0.16933 0.9913-0.89606 1.5593-2.2613 1.3264l-5.2811-0.89958-0.33867 1.9967 4.2333 0.72319c1.3617 0.22931 1.8627 1.009 1.6933 1.9967-0.16933 0.9913-0.89606 1.5593-2.2613 1.3264l-4.2333-0.72319-0.38806 2.2754 5.4998 0.93839c1.3652 0.23284 1.8627 1.009 1.6933 1.9967-0.16581 0.9913-0.89606 1.5593-2.2578 1.3264l-7.4577-1.2735c-1.7604-0.29986-2.4553-1.2524-2.1308-3.1503l1.5028-8.823"/>
   <path d="m-1.0859-137.4c1.1642 0.20109 1.8415 1.009 1.6439 2.1766-0.20108 1.1642-1.1042 1.7039-2.2719 1.5028l-6.7275-1.143c-1.7604-0.29986-2.4518-1.2524-2.1273-3.1538l1.5875-9.338c0.26106-1.5205 1.2912-2.3036 2.6952-2.0638 1.4041 0.23989 2.1167 1.3159 1.8556 2.8399l-1.4252 8.3679 4.7696 0.81138"/>
   <path d="m12.115-135.15c1.1642 0.19755 1.8415 1.0054 1.6439 2.1731-0.19756 1.1677-1.1042 1.7039-2.2719 1.5064l-6.7275-1.1465c-1.7604-0.29986-2.4518-1.2524-2.1273-3.1503l1.591-9.338c0.25753-1.524 1.2876-2.3036 2.6917-2.0638 1.4041 0.23989 2.1167 1.3159 1.8556 2.8399l-1.4252 8.3679 4.7696 0.81139"/>
   <path d="m23.856-140.7c-1.8979-0.32102-3.0798 1.1042-3.4749 3.4184-0.39158 2.3142 0.24694 4.0534 2.1484 4.378 1.8979 0.32103 3.0762-1.1042 3.4713-3.4184 0.39511-2.3142-0.24694-4.0534-2.1449-4.378zm0.60678-3.5595c3.7782 0.64205 6.9356 3.7253 6.0889 8.7101-0.88194 5.1647-4.8119 6.8545-8.6289 6.2054-3.8206-0.64911-6.9674-3.5489-6.0889-8.7101 0.85019-4.9848 4.8507-6.851 8.6289-6.2054"/>
   <path d="m36.347-142.16c1.5416 0.26458 2.0038 1.2559 1.7604 2.6811s-0.94544 3.5242-1.9332 5.962c-0.2787 0.68438-0.60678 0.95602-1.4393 0.81138-0.83256-0.14111-1.0548-0.50447-1.0901-1.2453-0.12347-2.6247-0.09172-4.8366 0.15169-6.2618 0.23989-1.4252 1.0054-2.2084 2.5506-1.9473zm-1.7357 10.188c1.2241 0.20814 2.0461 1.3652 1.838 2.5929-0.21167 1.2241-1.3688 2.0461-2.5929 1.838-1.2277-0.21167-2.0496-1.3688-1.838-2.5929 0.20814-1.2277 1.3652-2.0496 2.5929-1.838"/>
   <path d="m2.1147-173.01c-27.488-3.4008-51.703 8.7912-53.975 27.174-0.94897 7.6623 1.9473 15.339 8.3785 22.2 0.55386 0.58914 0.70908 1.3617 0.41275 2.0355l-9.3098 21.121 23.735-11.289c0.73731-0.34925 1.6581-0.35278 2.4412-7e-3 6.2018 2.7376 12.954 4.572 20.066 5.4539 27.488 3.4008 51.703-8.7912 53.979-27.178 2.2754-18.383-18.239-36.11-45.727-39.511zm-59.584 79.368c-0.47625-0.05997-0.93839-0.2293-1.33-0.508-0.83961-0.59267-1.1571-1.5416-0.79375-2.3636l11.289-25.619c-6.5722-7.4471-9.6167-16.037-8.5901-24.324 2.5576-20.673 29.259-34.442 59.524-30.695 30.261 3.743 52.8 23.608 50.243 44.277s-29.259 34.442-59.521 30.695c-7.2249-0.89253-14.111-2.6988-20.493-5.3728l-28.734 13.667c-0.48683 0.23283-1.0478 0.31044-1.5946 0.24342"/>
  </g>
 </g>
</svg>
