<?xml version="1.0" encoding="UTF-8"?>
<!-- Created with Inkscape (http://www.inkscape.org/) -->
<svg width="216.33mm" height="269.29mm" version="1.1" viewBox="0 0 216.33 269.29" xmlns="http://www.w3.org/2000/svg">
 <g transform="translate(13.494 -54.504)">
  <path d="m160.75 314.12c0 5.3446-27.735 9.6767-61.951 9.6767-34.216 0-61.955-4.3321-61.955-9.6767 0-5.3446 27.739-9.6767 61.955-9.6767 34.216 0 61.951 4.3321 61.951 9.6767" fill="#2085b7"/>
  <path d="m149.66 113.6c-16.101-23.417-55.252-23.417-55.252-23.417s-39.151 0-55.252 23.417c-14.774 21.491-14.633 50.86-14.633 50.86l14.27 18.295h111.23l14.273-18.295s0.13759-29.369-14.637-50.86" fill="#d5e9f2"/>
  <path d="m149.68 113.6c-6.3112-9.1828-16.168-14.764-25.816-18.157 4.9918 3.108 9.5356 7.0697 13.01 12.118 14.774 21.495 14.633 50.86 14.633 50.86l-14.27 18.295h-103.13l4.7096 6.0396h111.23l14.27-18.295s0.13758-29.369-14.637-50.86" fill="#a8d7e9"/>
  <path d="m129.9 118.35c-15.004-11.342-55.982-11.342-70.986 0-16.284 12.315-15.734 41.712-15.734 41.712h102.45s0.55386-29.397-15.734-41.712" fill="#002b43"/>
  <path d="m43.609 160.07c1.0019-9.592 4.3321-25.64 15.304-33.937 15.004-11.342 55.982-11.342 70.986 0 10.971 8.2973 14.302 24.345 15.307 33.937h0.42686s0.55386-29.397-15.734-41.712c-15.004-11.342-55.982-11.342-70.986 0-16.284 12.315-15.734 41.712-15.734 41.712h0.43039" fill="#000f16"/>
  <g fill="#d5e9f2">
   <path d="m108.86 94.569c0 1.2136-0.98425 2.1978-2.1943 2.1978h-24.518c-1.21 0-2.1943-0.98425-2.1943-2.1978v-7.6835c0-1.21 0.98425-2.1943 2.1943-2.1943h24.518c1.21 0 2.1943 0.98425 2.1943 2.1943v7.6835"/>
   <path d="m87.879 90.544 3.2914-30.734h4.3921l5.3693 30.917-13.053-0.18344"/>
   <path d="m98.798 59.81c0 2.9316-2.3777 5.3058-5.3058 5.3058-2.9316 0-5.3058-2.3742-5.3058-5.3058 0-2.9316 2.3742-5.3058 5.3058-5.3058 2.9281 0 5.3058 2.3742 5.3058 5.3058"/>
  </g>
  <g fill="#a8d7e9">
   <path d="m96.801 55.665c0.3422 0.70203 0.5327 1.4852 0.5327 2.3142 0 2.9316-2.3777 5.3058-5.3058 5.3058-1.2524 0-2.4059-0.43392-3.3126-1.1606 0.86078 1.7709 2.6741 2.9916 4.7766 2.9916 2.9281 0 5.3058-2.3742 5.3058-5.3058 0-1.6757-0.77964-3.1715-1.9967-4.1451"/>
   <path d="m38.79 182.75h111.23l14.273-18.295h-139.77l14.27 18.295"/>
   <path d="m108.86 90.978c0 0.77258-0.49036 1.397-1.0971 1.397h-12.259c-0.60678 0-1.0971-0.62442-1.0971-1.397v-4.8895c0-0.77258 0.49036-1.397 1.0971-1.397h12.259c0.60678 0 1.0971 0.62442 1.0971 1.397v4.8895"/>
  </g>
  <path d="m72.512 100.27c-1.7851-3.4114-9.8496-1.4605-12.485-0.2152-2.1555 1.016-6.0501 3.2703-8.5337 5.6586-1.972 1.5699-3.7324 3.3972-5.2634 5.4575-1.2735 1.711-3.6724 5.2352-2.1343 7.4824 1.6933 2.4694 4.5508 0.32808 5.969-1.0971 3.6936-3.7148 6.5299-7.6941 11.539-9.9554 2.4624-1.1112 13.01-3.309 10.908-7.3307" fill="#fff"/>
  <path d="m170.22 224.2-21.738-37.493h-108.16l-21.738 37.493s0.93133 15.625 6.1736 29.905c8.061 21.953 15.744 30.734 15.744 30.734l26.607 10.276 27.051 2.4871v0.0459s0.18344-0.0247 0.24342-0.0247c0.05997 0 0.24342 0.0247 0.24342 0.0247v-0.0459l27.051-2.4871 26.606-10.276s9.652-12.439 15.744-30.734c4.8048-14.436 6.1736-29.905 6.1736-29.905" fill="#d5e9f2"/>
  <path d="m148.49 186.7h-25.615l21.742 37.493s-1.3688 15.469-6.1736 29.905c-6.0925 18.295-8.8194 25.58-15.744 30.734-5.722 4.258-26.61 10.276-26.61 10.276l-14.485 1.3335 12.562 1.1536v0.0459s0.18344-0.0247 0.24342-0.0247c0.05997 0 0.24342 0.0247 0.24342 0.0247v-0.0459l27.051-2.4871 26.606-10.276s9.652-12.439 15.744-30.734c4.8048-14.436 6.1736-29.905 6.1736-29.905l-21.738-37.493" fill="#a8d7e9"/>
  <path d="m18.587 224.2h151.64l-5.909 11.243z" fill="#a8d7e9"/>
  <path d="m49.028 249.06c-0.43392-5.4398 3.2808-12.94-2.9281-15.815-3.1891-1.4746-8.5796-2.0814-11.049 1.0901-0.91017 1.1642-1.3688 2.6352-1.4534 4.1592-0.889 3.8806 1.1994 9.5568 2.1766 13.035 1.1465 4.0958 5.1329 18.496 12.467 14.573 4.9989-2.6741 1.1042-13.014 0.7867-17.043" fill="#fff"/>
  <path d="m57.004 194.53c-3.2985-4.7061-7.941-3.1362-11.243 0.27869-7.3484 4.4732-15.152 22.751-4.0428 24.539 6.4064 1.0301 8.3679-6.7733 10.537-10.993 1.9932-3.87 7.9869-9.204 4.7484-13.825" fill="#fff"/>
  <path d="m174.73 221.81s15.533 18.214 22.959 23.555c5.6374 4.0499 10.816-16.778-8.5372-36.019-18.927-18.814-34.77-22.285-34.77-22.285l20.348 34.749" fill="#d5e9f2"/>
  <path d="m189.15 209.34c-18.927-18.814-34.77-22.285-34.77-22.285l1.6933 2.8928c6.0678 3.3408 13.861 8.6678 22.257 17.018 13.003 12.926 14.933 26.568 13.088 32.9 2.3354 2.2719 4.5261 4.2369 6.2724 5.4928 5.6339 4.0499 10.813-16.778-8.5408-36.019" fill="#a8d7e9"/>
  <path d="m15.041 220.96s-16.027 17.776-23.601 22.913c-5.7432 3.8947-10.347-17.067 9.5285-35.768 19.435-18.288 35.37-21.322 35.37-21.322l-21.297 34.177" fill="#d5e9f2"/>
  <path d="m0.96913 208.1c19.435-18.288 35.37-21.322 35.37-21.322l-1.7745 2.8434c-6.156 3.175-14.09 8.2868-22.715 16.401-13.353 12.562-15.656 26.148-13.988 32.53-2.3954 2.2049-4.639 4.1099-6.4206 5.3164-5.7432 3.8947-10.347-17.067 9.5285-35.768" fill="#fff"/>
  <path d="m40.202 288.07s9.6555 25.188 17.745 26.014c8.0857 0.82197 8.322-16.443 8.322-16.443l-26.067-9.5709" fill="#d5e9f2"/>
  <path d="m59.763 295.16c-0.09525 2.4448-0.84314 14.365-6.5264 15.875 1.6616 1.7357 3.3549 2.8928 4.9848 3.0586 8.0857 0.82197 8.322-16.443 8.322-16.443l-6.7804-2.4906" fill="#a8d7e9"/>
  <path d="m151.16 286.46s-7.7011 25.852-15.706 27.291c-8.001 1.4393-9.5568-15.759-9.5568-15.759l25.262-11.532" fill="#d5e9f2"/>
  <path d="m132.2 295.01c0.27869 2.4306 1.9368 14.259 7.7188 15.332-1.524 1.8591-3.1256 3.1397-4.7343 3.429-8.001 1.4393-9.5568-15.759-9.5568-15.759l6.5722-3.0021" fill="#a8d7e9"/>
  <g fill="#3aedb1">
   <path d="m114.38 155.67c-0.70203 0.0176-1.2912-0.53623-1.3123-1.2418-4e-3 -0.0776-0.23284-5.8032-3.8735-8.8053-3.4784-2.8716-9.7861-3.8312-12.848-3.8241-2.861-0.12347-9.3698 0.9525-12.848 3.8241-3.6407 3.0021-3.87 8.7277-3.8735 8.8053-0.01764 0.70555-0.6103 1.2594-1.3123 1.2418-0.70556-0.0212-1.2594-0.61031-1.2418-1.3159 0.01058-0.28222 0.24694-6.9462 4.8013-10.703 4.6496-3.8347 10.647-4.4203 13.868-4.4203 3.8418 0 10.432 0.58561 15.081 4.4203 4.5544 3.7571 4.7907 10.421 4.8013 10.703 0.0176 0.70556-0.53622 1.2947-1.2418 1.3159"/>
   <path d="m75.261 130.19c0.24694 1.0724-0.54328 2.1766-1.7709 2.4589l-10.657 2.4624c-1.2277 0.28222-2.4236-0.35983-2.6705-1.4358-0.25047-1.076 0.54328-2.1802 1.7709-2.4624l10.657-2.4589c1.2277-0.28575 2.4236 0.35984 2.6705 1.4358"/>
   <path d="m129.85 133.52c-0.22931 1.0795-1.4111 1.7462-2.6423 1.4887l-10.707-2.2472c-1.2312-0.26106-2.0461-1.3476-1.8203-2.4271 0.22931-1.0795 1.4111-1.7462 2.6423-1.4887l10.707 2.2507c1.2312 0.25752 2.0461 1.3441 1.8203 2.4236"/>
  </g>
 </g>
</svg>
