<?xml version="1.0" encoding="UTF-8"?>
<!-- Created with Inkscape (http://www.inkscape.org/) -->
<svg width="310.53mm" height="281.7mm" version="1.1" viewBox="0 0 310.53 281.7" xmlns="http://www.w3.org/2000/svg">
 <g transform="translate(42.766 -7.6729)">
  <path d="m133.98 279.7c0 5.3446-27.739 9.6767-61.955 9.6767-34.216 0-61.951-4.3321-61.951-9.6767 0-5.3446 27.735-9.6767 61.951-9.6767 34.216 0 61.955 4.3321 61.955 9.6767" fill="#2085b7"/>
  <path d="m119.3 79.033c-16.101-23.417-55.252-23.417-55.252-23.417s-39.151 0-55.252 23.417c-14.774 21.491-14.633 50.86-14.633 50.86l14.27 18.295h111.23l14.27-18.295s0.14112-29.369-14.633-50.86" fill="#d5e9f2"/>
  <path d="m119.32 79.033c-6.3112-9.1828-16.168-14.764-25.816-18.157 4.9918 3.108 9.5356 7.0697 13.01 12.118 14.774 21.495 14.633 50.86 14.633 50.86l-14.27 18.295h-103.13l4.7096 6.0396h111.23l14.27-18.295s0.13758-29.369-14.637-50.86" fill="#a8d7e9"/>
  <path d="m99.538 83.788c-15.004-11.342-55.982-11.342-70.986 0-16.288 12.315-15.734 41.712-15.734 41.712h102.45s0.55386-29.397-15.734-41.712" fill="#002b43"/>
  <path d="m13.245 125.5c1.0054-9.5885 4.3356-25.64 15.307-33.937 15.004-11.342 55.982-11.342 70.986 0 10.971 8.2973 14.302 24.349 15.307 33.937h0.42686s0.55386-29.397-15.734-41.712c-15.004-11.342-55.982-11.342-70.986 0-16.288 12.315-15.734 41.712-15.734 41.712h0.42686" fill="#000f16"/>
  <g fill="#d5e9f2">
   <path d="m78.498 60.004c0 1.2136-0.98425 2.1978-2.1943 2.1978h-24.518c-1.21 0-2.1943-0.98425-2.1943-2.1978v-7.6835c0-1.21 0.98425-2.1943 2.1943-2.1943h24.518c1.21 0 2.1943 0.98425 2.1943 2.1943v7.6835"/>
   <path d="m57.518 55.979 3.2914-30.734h4.3921l5.3693 30.917-13.053-0.18344"/>
   <path d="m68.437 25.245c0 2.9316-2.3777 5.3058-5.3058 5.3058-2.9316 0-5.3058-2.3742-5.3058-5.3058 0-2.9316 2.3742-5.3058 5.3058-5.3058 2.9281 0 5.3058 2.3742 5.3058 5.3058"/>
  </g>
  <g fill="#a8d7e9">
   <path d="m66.44 21.1c0.3422 0.70203 0.5327 1.4852 0.5327 2.3142 0 2.9316-2.3777 5.3058-5.3058 5.3058-1.2524 0-2.4059-0.43392-3.3126-1.1606 0.86078 1.7709 2.6741 2.9916 4.7766 2.9916 2.9281 0 5.3058-2.3742 5.3058-5.3058 0-1.6757-0.77964-3.1715-1.9967-4.1451"/>
   <path d="m8.4294 148.19h111.23l14.27-18.295h-139.77l14.27 18.295"/>
   <path d="m78.498 56.413c0 0.77258-0.49036 1.397-1.0971 1.397h-12.259c-0.60678 0-1.0971-0.62442-1.0971-1.397v-4.8895c0-0.77258 0.49036-1.397 1.0971-1.397h12.259c0.60678 0 1.0971 0.62442 1.0971 1.397v4.8895"/>
  </g>
  <path d="m42.151 65.708c-1.7851-3.4114-9.8496-1.4605-12.485-0.2152-2.1555 1.016-6.0501 3.2702-8.5372 5.6586-1.9685 1.5699-3.7289 3.3972-5.2599 5.4575-1.2735 1.711-3.6724 5.2352-2.1343 7.4824 1.6933 2.4694 4.5508 0.32808 5.969-1.0971 3.6936-3.7148 6.5299-7.6906 11.539-9.9554 2.4624-1.1112 13.007-3.3091 10.908-7.3307" fill="#fff"/>
  <path d="m61.018 22.186c-2.5012 0.60325-1.5452 5.8244 1.5275 3.0127 2.4448-2.2331-0.11642-3.6407-1.5275-3.0127" fill="#fff"/>
  <path d="m139.86 189.63-21.738-37.493h-108.16l-21.738 37.493s0.93133 15.625 6.1736 29.905c8.061 21.953 15.744 30.738 15.744 30.738l26.607 10.273 27.051 2.4871v0.0459s0.18344-0.0247 0.24342-0.0247c0.05997 0 0.24342 0.0247 0.24342 0.0247v-0.0459l27.051-2.4871 26.606-10.273s9.652-12.442 15.744-30.738c4.8048-14.436 6.1736-29.905 6.1736-29.905" fill="#d5e9f2"/>
  <path d="m118.13 152.14h-25.615l21.742 37.493s-1.3688 15.469-6.1736 29.905c-6.0925 18.295-8.8194 25.583-15.748 30.738-5.7185 4.2545-26.607 10.273-26.607 10.273l-14.485 1.3335 12.562 1.1536v0.0459s0.18344-0.0247 0.24342-0.0247c0.05997 0 0.24342 0.0247 0.24342 0.0247v-0.0459l27.051-2.4871 26.606-10.273s9.652-12.442 15.744-30.738c4.8048-14.436 6.1736-29.905 6.1736-29.905l-21.738-37.493" fill="#a8d7e9"/>
  <path d="m-11.774 189.63h151.64l-5.909 11.243z" fill="#a8d7e9"/>
  <path d="m18.667 214.5c-0.43392-5.4398 3.2808-12.94-2.9281-15.815-3.1926-1.4746-8.5796-2.0814-11.049 1.0901-0.91017 1.1642-1.3688 2.6352-1.4534 4.1592-0.889 3.8806 1.1994 9.5568 2.1766 13.035 1.1465 4.0958 5.1294 18.496 12.467 14.573 4.9989-2.6705 1.1042-13.014 0.78669-17.043" fill="#fff"/>
  <path d="m26.643 159.97c-3.2985-4.7025-7.941-3.1362-11.243 0.27869-7.3484 4.4732-15.152 22.751-4.0428 24.539 6.4064 1.0301 8.3679-6.7733 10.537-10.993 1.9897-3.87 7.9869-9.204 4.7484-13.825" fill="#fff"/>
  <path d="m124.43 152.14s47.565-29.566 56.713-29.566 5.4892 16.468-9.1475 34.449c-14.199 17.452-28.173 27.855-28.173 27.855l-19.392-32.738" fill="#d5e9f2"/>
  <path d="m181.14 122.57c-0.9137 0-2.2119 0.29633-3.8065 0.82903-0.26105 6.4311-5.1118 16.926-14.122 28-9.7508 11.98-19.392 20.638-24.479 24.892l5.087 8.5831s13.974-10.403 28.173-27.855c14.637-17.981 18.295-34.449 9.1475-34.449" fill="#a8d7e9"/>
  <path d="m170.91 129.45c-1.2524-0.81845-4.886 1.0301-5.9161 1.5381-1.7251 0.84667-6.1807 3.6477-7.112 6.3253-1.0336 1.397-1.2171 2.7799 0.49389 3.6301 2.5823 1.2876 9.7684-4.5367 11.328-6.4523 0.97367-1.1959 2.9175-3.9194 1.2065-5.0412" fill="#fff"/>
  <path d="m9.8405 253.51s9.6555 25.188 17.745 26.014c8.0857 0.82198 8.322-16.443 8.322-16.443l-26.067-9.5709" fill="#d5e9f2"/>
  <path d="m29.402 260.59c-0.09525 2.4448-0.84314 14.365-6.5299 15.875 1.6651 1.7392 3.3584 2.8928 4.9848 3.0586 8.0892 0.82198 8.3256-16.443 8.3256-16.443l-6.7804-2.4906" fill="#a8d7e9"/>
  <path d="m94.084 263.08s12.354 18.979 28.265 15.014c6.6534-1.6616-3.8418-24.585-3.8418-24.585l-24.423 9.5709" fill="#d5e9f2"/>
  <path d="m118.51 253.51-6.6252 2.5964c2.667 6.7098 6.8862 19.135 2.0496 20.341-1.3053 0.32456-2.5859 0.49389-3.8382 0.5327 3.683 1.5452 7.8317 2.2154 12.256 1.1148 6.6534-1.6616-3.8418-24.585-3.8418-24.585" fill="#a8d7e9"/>
  <path d="m78.523 109.27c-0.47272-0.0106-0.86783 0.35983-0.88194 0.83608-0.0035 0.0494-0.15522 3.8982-2.6 5.9161-2.3389 1.9262-6.5758 2.5718-8.6325 2.5647-1.9226 0.0847-6.2936-0.63853-8.6289-2.5647-2.4483-2.0179-2.6-5.8667-2.6035-5.9161-0.01411-0.47625-0.40922-0.84666-0.88194-0.83608-0.47272 0.0141-0.84667 0.40922-0.83256 0.88194 0.0071 0.1905 0.1658 4.6673 3.2244 7.1931 3.1221 2.5753 7.1508 2.9669 9.3133 2.9669 2.5823 0 7.0097-0.39159 10.132-2.9669 3.0586-2.5259 3.2209-7.0026 3.2244-7.1931 0.01411-0.47272-0.35983-0.86783-0.83256-0.88194" fill="#3aedb1"/>
  <path d="m-14.05 184.67s-16.235 17.59-23.865 22.634c-5.7891 3.8241-10.149-17.187 9.9448-35.655 19.65-18.059 35.616-20.902 35.616-20.902l-21.696 33.923" fill="#d5e9f2"/>
  <path d="m-27.97 171.64c19.65-18.059 35.616-20.902 35.616-20.902l-1.8027 2.8222c-6.1983 3.1009-14.189 8.1174-22.909 16.133-13.497 12.404-15.963 25.961-14.369 32.36-2.4201 2.1802-4.6884 4.0569-6.4805 5.2423-5.7891 3.8241-10.149-17.187 9.9448-35.655" fill="#a8d7e9"/>
  <path d="m37.516 97.959c0 2.7975-2.2648 5.0624-5.0588 5.0624-2.7975 0-5.0624-2.2648-5.0624-5.0624 0-2.794 2.2648-5.0588 5.0624-5.0588 2.794 0 5.0588 2.2648 5.0588 5.0588" fill="#3aedb1"/>
  <path d="m101.84 97.959c0 2.7975-2.2684 5.0624-5.0624 5.0624s-5.0624-2.2648-5.0624-5.0624c0-2.794 2.2684-5.0588 5.0624-5.0588s5.0624 2.2648 5.0624 5.0588" fill="#3aedb1"/>
  <path d="m267.24 150.16c1.7321 5.3022-1.0089 10.954-6.1242 12.626l-76.405 24.998c-5.1153 1.6722-10.668-1.27-12.4-6.5687l-44.309-135.45c-1.7357-5.2987 1.0054-10.954 6.1207-12.626l76.408-24.994c5.1153-1.6722 10.668 1.2665 12.4 6.5687l44.309 135.45" fill="#2a56f4"/>
  <path d="m214.52 7.7329c1.4534 1.1994 2.6035 2.8222 3.242 4.7696l44.309 135.45c1.7321 5.2987-1.0089 10.954-6.1242 12.626l-76.408 24.994c-1.3229 0.43392-2.6741 0.55739-3.9829 0.40923 2.5118 2.0673 5.9231 2.861 9.1616 1.7992l76.408-24.994c5.1118-1.6722 7.8528-7.3237 6.1207-12.626l-44.309-135.45c-1.2841-3.9299-4.6708-6.5617-8.4173-6.9779" fill="#0643f2"/>
  <path d="m258.8 146.47c1.6051 4.9107-0.66675 10.061-5.0765 11.504l-65.885 21.551c-4.4097 1.4429-9.2851-1.3688-10.894-6.2794l-41.042-125.46c-1.6051-4.9107 0.67028-10.058 5.08-11.501l65.881-21.551c4.4097-1.4429 9.2886 1.3652 10.894 6.2759l41.042 125.46" fill="#002b43"/>
  <g fill="#3aedb1">
   <path d="m194.74 42.263-44.595 14.587-3.2244-9.8496 44.595-14.591 3.2244 9.8531"/>
   <path d="m232.58 82.497-44.595 14.591-3.2209-9.8531 44.595-14.587 3.2209 9.8496"/>
   <path d="m237.12 96.389-30.678 10.037-3.2209-9.8496 30.678-10.037 3.2209 9.8496"/>
   <path d="m213.4 146.28-30.681 10.037-3.2209-9.8496 30.678-10.037 3.2244 9.8496"/>
   <path d="m217.91 160.09-30.678 10.037-3.2244-9.8496 30.681-10.037 3.2209 9.8496"/>
   <path d="m242.16 111.77-61.86 20.235-3.2244-9.8496 61.863-20.235 3.2209 9.8496"/>
   <path d="m186.37 63.556-30.745 10.058-3.0692-9.3874 30.745-10.058 3.0692 9.3874"/>
  </g>
  <path d="m171.68 26.236 11.723-3.877-0.0282 0.05292-11.695 3.8241" fill="#5578f6"/>
  <path d="m148.61 86.628-6.8968-21.082 7.8846-10.347 0.54328 1.651 17.727-5.7997-5.3728 9.9236-9.9413 3.2526 3.0692 9.3874 0.0353-0.01058-7.0485 13.025m10.206-43.522 12.859-16.87 11.695-3.8241-8.3291 15.388-16.224 5.3058" fill="#335569"/>
  <path d="m150.14 56.85-0.54328-1.651 9.2181-12.093 16.224-5.3058-7.172 13.25-17.727 5.7997" fill="#61f1c1"/>
  <path d="m155.63 73.614-3.0692-9.3874 9.9413-3.2526-6.8368 12.629-0.0353 0.01058" fill="#61f1c1"/>
  <path d="m220.83 30.388-3.0692-9.3839 3.0692 9.3839" fill="#5578f6"/>
  <path d="m164.7 135.81-7.1155-21.756 60.173-93.049 3.0692 9.3839-29.044 54.55-7.0168 2.2966 2.2049 6.7451-22.271 41.829" fill="#335569"/>
  <path d="m186.97 93.98-2.2049-6.7451 7.0168-2.2966-4.8119 9.0417" fill="#61f1c1"/>
  <path d="m202.78 174.64 27.492-8.9958-27.492 8.9958m43.057-67.8-3.3514-10.252 3.3514 10.248" fill="#5578f6"/>
  <path d="m202.78 174.64 5.8526-11.508 9.2816-3.0374-3.0268-9.2569 18.397-36.163 8.8724-2.9034-2.8928-8.8512 3.2209-6.3324 3.3514 10.252-15.565 58.805-27.492 8.9958" fill="#335569"/>
  <path d="m208.63 163.13 6.2548-12.294 3.0268 9.2569-9.2816 3.0374" fill="#61f1c1"/>
  <path d="m233.28 114.67 5.9796-11.755 2.8928 8.8512-8.8724 2.9034" fill="#61f1c1"/>
  <path d="m170.55 153.69-2.7199-8.322 2.7199 8.322m54.197-111.32-2.3283-7.1155 2.3283 7.1155" fill="#5578f6"/>
  <path d="m170.55 153.69-2.7199-8.322-1.1042-3.3761 10.35-19.837 3.2209 9.846 1.2453-0.40569-10.993 22.094m6.5264-31.538 13.526-25.922 10.188-3.3338-12.771 25.675-10.943 3.5807m20.387-39.07 24.956-47.83 2.3283 7.1155 0.4692 1.4288-17.946 36.079-9.8072 3.2068" fill="#335569"/>
  <path d="m190.6 96.231 6.8615-13.148 9.8072-3.2068-6.4805 13.021-10.188 3.3338" fill="#61f1c1"/>
  <path d="m180.3 132-3.2209-9.846v-4e-3l10.943-3.5807-6.477 13.025-1.2453 0.40569" fill="#61f1c1"/>
 </g>
</svg>
