<?xml version="1.0" encoding="UTF-8"?>
<!-- Created with Inkscape (http://www.inkscape.org/) -->
<svg width="264.77mm" height="299.82mm" version="1.1" viewBox="0 0 264.77 299.82" xmlns="http://www.w3.org/2000/svg">
 <g transform="translate(27.252 1.323)">
  <path d="m179.17 288.82c0 5.3446-27.739 9.6767-61.955 9.6767-34.216 0-61.951-4.3321-61.951-9.6767 0-5.3446 27.735-9.6767 61.951-9.6767 34.216 0 61.955 4.3321 61.955 9.6767" fill="#2085b7"/>
  <path d="m164.21 88.138c-16.097-23.417-55.249-23.417-55.249-23.417s-39.151 0-55.252 23.417c-14.778 21.491-14.637 50.86-14.637 50.86l14.27 18.295h111.23l14.27-18.295s0.14111-29.369-14.637-50.86" fill="#d5e9f2"/>
  <path d="m164.24 88.138c-6.3112-9.1793-16.164-14.76-25.813-18.154 4.9918 3.1044 9.5356 7.0661 13.007 12.118 14.778 21.491 14.637 50.86 14.637 50.86l-14.27 18.295h-103.13l4.7061 6.036h111.23l14.27-18.295s0.14111-29.369-14.637-50.86" fill="#a8d7e9"/>
  <path d="m144.46 92.897c-15-11.345-55.982-11.345-70.982 0-16.288 12.312-15.734 41.712-15.734 41.712h102.45s0.55386-29.401-15.734-41.712" fill="#002b43"/>
  <path d="m58.166 134.61c1.0054-9.592 4.3321-25.643 15.307-33.941 15-11.342 55.982-11.342 70.982 0 10.975 8.2973 14.302 24.349 15.307 33.941h0.42686s0.55386-29.401-15.734-41.712c-15-11.345-55.982-11.345-70.982 0-16.288 12.312-15.734 41.712-15.734 41.712h0.42686" fill="#000f16"/>
  <g fill="#d5e9f2">
   <path d="m123.42 69.113c0 1.21-0.98425 2.1943-2.1978 2.1943h-24.515c-1.2136 0-2.1943-0.98425-2.1943-2.1943v-7.6835c0-1.2136 0.98072-2.1978 2.1943-2.1978h24.515c1.2136 0 2.1978 0.98425 2.1978 2.1978v7.6835"/>
   <path d="m102.44 65.087 3.2949-30.738h4.3921l5.3693 30.921-13.056-0.18344"/>
   <path d="m113.35 34.35c0 2.9316-2.3742 5.3058-5.3058 5.3058-2.928 0-5.3058-2.3742-5.3058-5.3058 0-2.9281 2.3777-5.3058 5.3058-5.3058 2.9316 0 5.3058 2.3777 5.3058 5.3058"/>
  </g>
  <g fill="#a8d7e9">
   <path d="m111.36 30.208c0.33866 0.6985 0.52917 1.4852 0.52917 2.3142 0 2.9281-2.3742 5.3058-5.3058 5.3058-1.2524 0-2.4024-0.43744-3.3091-1.1642 0.85725 1.7709 2.6741 2.9916 4.7731 2.9916 2.9316 0 5.3058-2.3742 5.3058-5.3058 0-1.6757-0.77964-3.1715-1.9932-4.1416"/>
   <path d="m53.347 157.29h111.23l14.27-18.295h-139.77l14.27 18.295"/>
   <path d="m123.42 65.518c0 0.77258-0.49389 1.397-1.1007 1.397h-12.256c-0.60678 0-1.0971-0.62442-1.0971-1.397v-4.8895c0-0.76906 0.49036-1.397 1.0971-1.397h12.256c0.60677 0 1.1007 0.62794 1.1007 1.397v4.8895"/>
  </g>
  <path d="m87.069 74.814c-1.7815-3.4114-9.8496-1.457-12.485-0.2152-2.1519 1.0195-6.0501 3.2703-8.5337 5.6586-1.972 1.5699-3.7324 3.3972-5.2634 5.4575-1.27 1.711-3.6689 5.2352-2.1308 7.4824 1.6898 2.473 4.5473 0.33161 5.969-1.0971 3.6936-3.7112 6.5299-7.6906 11.539-9.9519 2.4624-1.1112 13.007-3.3126 10.904-7.3342" fill="#fff"/>
  <path d="m184.79 198.74-21.742-37.497h-108.16l-21.742 37.497s0.93133 15.621 6.1771 29.901c8.061 21.957 15.744 30.738 15.744 30.738l26.607 10.273 27.051 2.4871v0.0459s0.17992-0.0212 0.24342-0.0212c0.06 0 0.23989 0.0212 0.23989 0.0212v-0.0459l27.051-2.4871 26.606-10.273s9.6555-12.442 15.744-30.738c4.8084-14.432 6.1771-29.901 6.1771-29.901" fill="#d5e9f2"/>
  <path d="m163.04 161.24h-25.612l21.738 37.497s-1.3688 15.469-6.1736 29.901c-6.0925 18.295-8.8194 25.583-15.744 30.738-5.7185 4.2545-26.606 10.273-26.606 10.273l-14.489 1.3335 12.566 1.1536v0.0459s0.17992-0.0212 0.24342-0.0212c0.06 0 0.23989 0.0212 0.23989 0.0212v-0.0459l27.051-2.4871 26.606-10.273s9.6555-12.442 15.744-30.738c4.8084-14.432 6.1771-29.901 6.1771-29.901l-21.742-37.497" fill="#a8d7e9"/>
  <path d="m33.144 198.74h151.64l-5.9126 11.243z" fill="#a8d7e9"/>
  <path d="m63.585 223.6c-0.43039-5.4363 3.2844-12.94-2.9281-15.812-3.1891-1.4746-8.5796-2.0814-11.049 1.0866-0.90664 1.1677-1.3652 2.6352-1.4499 4.1592-0.89253 3.8841 1.1994 9.5603 2.1731 13.035 1.1501 4.0958 5.1329 18.496 12.467 14.573 5.0024-2.6705 1.1077-13.01 0.7867-17.043" fill="#fff"/>
  <path d="m71.561 169.08c-3.2985-4.7061-7.9375-3.1397-11.24 0.27516-7.3519 4.4768-15.155 22.754-4.0428 24.539 6.4029 1.0336 8.3679-6.7733 10.537-10.993 1.9897-3.87 7.9834-9.204 4.7449-13.822" fill="#fff"/>
  <path d="m166.15 161.07s38.756-40.428 47.618-42.697c8.8618-2.2648 9.398 14.591-0.32455 35.641-9.4333 20.426-25.587 41.635-25.587 41.635l-21.706-34.579" fill="#d5e9f2"/>
  <path d="m213.77 118.38c-0.88547 0.22578-2.0708 0.83608-3.4819 1.7462 1.3406 6.2971-0.75848 17.664-6.7416 30.625-6.477 14.023-18.718 28.526-22.595 33.905l6.9074 11s16.154-21.209 25.587-41.635c9.7226-21.05 9.1863-37.906 0.32455-35.641" fill="#a8d7e9"/>
  <path d="m205.56 127.58c-1.4146-0.4833-4.4768 2.2049-5.3481 2.9528-1.4605 1.2488-5.0835 5.0694-5.3234 7.8916-0.65617 1.6122-0.49037 2.9951 1.3794 3.3972 2.8222 0.60325 8.3397-6.8157 9.3768-9.0629 0.64206-1.397 1.8521-4.5156-0.0847-5.1788" fill="#fff"/>
  <path d="m50.606 161.19s-38.735-40.45-47.597-42.721c-8.8583-2.2719-9.4051 14.584 0.30692 35.641 9.4227 20.429 25.566 41.649 25.566 41.649l21.724-34.569" fill="#d5e9f2"/>
  <path d="m3.0093 118.47c0.88547 0.22578 2.0708 0.83608 3.4854 1.7462-1.3441 6.2971 0.74436 17.667 6.7239 30.628 6.4699 14.026 18.701 28.536 22.574 33.916l-6.9109 11s-16.143-21.22-25.566-41.649c-9.712-21.057-9.1652-37.913-0.30692-35.641" fill="#a8d7e9"/>
  <path d="m11.215 127.68c1.4146-0.4833 4.4768 2.2084 5.3481 2.9563 1.4605 1.2488 5.08 5.0729 5.3164 7.8952 0.65617 1.6122 0.49036 2.9951-1.3794 3.3937-2.8222 0.60325-8.3361-6.8192-9.3698-9.0664-0.64558-1.397-1.8521-4.5156 0.08467-5.1788" fill="#fff"/>
  <path d="m54.758 262.62s9.6591 25.188 17.745 26.01c8.0892 0.8255 8.3256-16.443 8.3256-16.443l-26.07-9.5673" fill="#d5e9f2"/>
  <path d="m74.32 269.7c-0.09172 2.4448-0.83961 14.365-6.5264 15.879 1.6651 1.7357 3.3549 2.8892 4.9848 3.0551 8.0892 0.8255 8.3256-16.443 8.3256-16.443l-6.7839-2.4906" fill="#a8d7e9"/>
  <path d="m139 272.19s12.358 18.979 28.265 15.014c6.6569-1.6581-3.8418-24.582-3.8418-24.582l-24.423 9.5673" fill="#d5e9f2"/>
  <path d="m163.42 262.62-6.6252 2.5964c2.6705 6.7063 6.8862 19.135 2.0532 20.338-1.3053 0.32809-2.5859 0.49389-3.8382 0.5327 3.683 1.5452 7.8317 2.219 12.252 1.1148 6.6569-1.6581-3.8418-24.582-3.8418-24.582" fill="#a8d7e9"/>
  <g fill="#3aedb1">
   <path d="m112.09 94.259c-4e-3 0.47625-0.39159 0.86431-0.86784 0.86078-0.47977 0-0.86783-0.38806-0.8643-0.86783l0.0106-3.9864c0-0.47625 0.39159-0.8643 0.86784-0.86078 0.47977 0 0.86783 0.38806 0.8643 0.86783l-0.0106 3.9864"/>
   <path d="m97.593 104.61c0.47978 0 0.8643 0.38806 0.8643 0.86783 0 0.47978-0.39158 0.86431-0.86783 0.86431l-3.9864-0.0106c-0.47978-4e-3 -0.86431-0.39159-0.86431-0.87137 0.0035-0.47625 0.39158-0.8643 0.86783-0.8643l3.9864 0.0141"/>
   <path d="m99.166 98.598c0.41628 0.23636 0.56444 0.76553 0.32808 1.1818-0.23636 0.41628-0.76553 0.56092-1.1818 0.32809l-3.4678-1.9614c-0.41628-0.23636-0.56444-0.76553-0.32808-1.1818s0.762-0.56444 1.1818-0.32808l3.4678 1.9614"/>
   <path d="m105.15 94.541c0.20461 0.43392 0.0176 0.94897-0.41628 1.1536-0.43391 0.20461-0.94897 0.01764-1.1536-0.41628l-1.6933-3.6089c-0.20109-0.43039-0.0176-0.94897 0.41627-1.1501 0.43392-0.20461 0.94898-0.01764 1.1536 0.41628l1.6933 3.6054"/>
   <path d="m125.19 104.88c-0.48331 0-0.87842 0.39158-0.87842 0.87489-4e-3 0.48331 0.38805 0.87842 0.87489 0.87842l4.0358 0.0141c0.4833 0 0.87489-0.39159 0.87841-0.87489 0-0.48331-0.39158-0.87842-0.87489-0.87842l-4.0358-0.0141"/>
   <path d="m123.26 98.668c-0.41628 0.23283-0.56445 0.762-0.33162 1.1783 0.23284 0.41981 0.75848 0.56797 1.1783 0.33514l3.4784-1.9403c0.41981-0.23283 0.56797-0.762 0.33514-1.1783-0.23283-0.41981-0.75847-0.56797-1.1783-0.33514l-3.4819 1.9403"/>
   <path d="m117.3 94.576c-0.20461 0.43392-0.0212 0.94897 0.40922 1.1571 0.43392 0.20461 0.94897 0.02117 1.1571-0.40922l1.7145-3.5983c0.20461-0.43392 0.0212-0.94897-0.40922-1.1571-0.43392-0.20461-0.94897-0.02117-1.1571 0.40922l-1.7145 3.5983"/>
   <path d="m119.54 106.64c-0.31398 1.9826-1.6545 3.4149-3.1256 4.8613-1.1853 1.1606-2.099 2.3848-2.4095 3.8488l-5.214-0.0141c-0.28223-1.3899-1.1148-2.5647-2.2119-3.6936-1.4711-1.5028-2.7728-2.8222-3.2279-4.8189-0.39158-1.7145 0.26459-3.5384 1.591-4.826 1.5734-1.5275 3.9299-2.0743 6.2159-2.0532 0.10231 0 0.19756-0.01058 0.28575-0.02469 0.0882 0.01764 0.17992 0.02822 0.28223 0.02469 4.3392-0.01411 8.4631 2.5929 7.814 6.6957zm2.2578-1.1007c-0.14111-4.6814-5.0412-7.5318-10.065-7.5142-0.1023 0-0.19755 0.01411-0.28575 0.03175-0.0847-0.02117-0.17991-0.03175-0.28222-0.03175-5.0835-0.04586-9.5814 2.6635-10.093 7.2319-0.23636 2.1237 0.73378 4.3251 2.219 5.9831 1.27 1.4217 2.9034 2.6106 3.3055 4.3603-0.56445 0.33514-0.94192 0.94897-0.94545 1.651l-4e-3 0.889 11.314 0.0317 4e-3 -0.889c0-0.63853-0.31045-1.203-0.79022-1.5558 0.3563-1.7251 1.9085-2.8928 3.1891-4.258 1.5734-1.6722 2.5012-3.7536 2.4342-5.9302"/>
   <path d="m116.96 119.04-11.31-0.0317-7e-3 2.4977 11.31 0.0317 7e-3 -2.4977"/>
   <path d="m116.95 122.4-11.31-0.0318-7e-3 2.4906 11.31 0.0318 7e-3 -2.4906"/>
   <path d="m105.63 125.72v0.33514c-4e-3 1.0654 0.85725 1.9297 1.9191 1.9297l1.4852 7e-3v0.16581c-4e-3 1.0619 0.85373 1.9262 1.9191 1.9297h0.64205c1.0619 4e-3 1.9262-0.85372 1.9297-1.9191v-0.1658l1.4852 7e-3c1.0619 4e-3 1.9297-0.85725 1.9297-1.9226l4e-3 -0.33514-11.314-0.0318"/>
  </g>
  <g fill="#fff">
   <path d="m-12.135 66.015-5.909-3.9723-6.6252 2.6176 1.9544-6.8509-4.5367-5.4892 7.1155-0.25753 3.8206-6.0113 2.4483 6.6887 6.8933 1.7745-5.6021 4.3921 0.44097 7.1085"/>
   <path d="m22.14 89.225-5.9126-3.9723-6.6216 2.6176 1.9509-6.8474-4.5332-5.4892 7.1155-0.26106 3.8206-6.0113 2.4448 6.6887 6.8968 1.7745-5.6056 4.3956 0.4445 7.1049"/>
   <path d="m50.07 42.905-2.0567-5.3269-5.5492-1.3264 4.4309-3.6019-0.45508-5.6903 4.7942 3.1044 5.274-2.1908-1.4711 5.5174 3.7112 4.3356-5.7009 0.30692-2.9774 4.8719"/>
   <path d="m137.54 17.307 1.9332-6.8509-4.5508-5.4786 7.1155-0.28222 3.7994-6.0184 2.4659 6.6781 6.9039 1.7568-5.5915 4.4097 0.46214 7.1049-5.9231-3.9546-6.6146 2.6353"/>
   <path d="m170.82 54.363 5.6303-4.3603-0.39864-7.1085 5.8843 4.0076 6.6393-2.5788-1.9932 6.8368 4.505 5.5174-7.119 0.21872-3.8559 5.9866-2.4059-6.7028-6.8862-1.8168"/>
   <path d="m217.12 64.692 7.0379-1.0901 3.0939-6.4135 3.2103 6.3571 7.0556 0.95956-5.0553 5.0165 1.2665 7.0062-6.3324-3.2561-6.2724 3.3726 1.1395-7.0309-5.1435-4.9212"/>
   <path d="m213.53 31.26 4.759-0.73731 2.0884-4.3321 2.1696 4.2968 4.7696 0.64911-3.4149 3.3902 0.85372 4.7343-4.2792-2.2013-4.2404 2.2789 0.77258-4.7519-3.4784-3.3267"/>
  </g>
 </g>
</svg>
