<?xml version="1.0" encoding="UTF-8"?>
<!-- Created with Inkscape (http://www.inkscape.org/) -->
<svg width="249.4mm" height="272.62mm" version="1.1" viewBox="0 0 249.4 272.62" xmlns="http://www.w3.org/2000/svg">
 <g transform="translate(8.553 -5.6026)">
  <g transform="translate(-35.732 -39.959)">
   <path d="m225.48 308.5c0 5.3446-27.737 9.6767-61.953 9.6767-34.216 0-61.953-4.3321-61.953-9.6767 0-5.3446 27.738-9.6767 61.953-9.6767 34.216 0 61.953 4.3321 61.953 9.6767" fill="#2085b7"/>
   <path d="m209.74 104.65c-16.099-23.417-55.251-23.417-55.251-23.417s-39.151 0-55.251 23.417c-14.776 21.495-14.636 50.86-14.636 50.86l14.27 18.295h111.23l14.27-18.295s0.14006-29.365-14.636-50.86" fill="#d5e9f2"/>
   <path d="m209.77 104.65c-6.3116-9.1793-16.166-14.76-25.816-18.154 4.9925 3.108 9.5374 7.0661 13.009 12.118 14.776 21.491 14.636 50.86 14.636 50.86l-14.27 18.295h-103.14l4.7092 6.036h111.23l14.27-18.295s0.14005-29.365-14.636-50.86" fill="#a8d7e9"/>
   <path d="m189.99 109.41c-15.002-11.345-55.982-11.345-70.984 0-16.287 12.312-15.734 41.712-15.734 41.712h102.45s0.55315-29.4-15.734-41.712" fill="#002b43"/>
   <path d="m103.7 151.12c1.0044-9.592 4.3332-25.643 15.306-33.941 15.002-11.342 55.983-11.342 70.984 0 10.973 8.2973 14.302 24.349 15.306 33.941h0.42757s0.55315-29.4-15.734-41.712c-15.002-11.345-55.982-11.345-70.984 0-16.287 12.312-15.734 41.712-15.734 41.712h0.42722" fill="#000f16"/>
   <g fill="#d5e9f2">
    <path d="m168.95 85.626c0 1.2136-0.98284 2.1943-2.1953 2.1943h-24.516c-1.2125 0-2.1953-0.98072-2.1953-2.1943v-7.6835c0-1.2136 0.98284-2.1943 2.1953-2.1943h24.516c1.2125 0 2.1953 0.98072 2.1953 2.1943v7.6835"/>
    <path d="m147.97 81.601 3.2928-30.734h4.391l5.3696 30.917-13.053-0.18344"/>
    <path d="m158.88 50.867c0 2.9281-2.3756 5.3058-5.3058 5.3058-2.9302 0-5.3054-2.3777-5.3054-5.3058 0-2.9316 2.3752-5.3058 5.3054-5.3058 2.9302 0 5.3058 2.3742 5.3058 5.3058"/>
   </g>
   <g fill="#a8d7e9">
    <path d="m156.89 46.722c0.33972 0.6985 0.53058 1.4852 0.53058 2.3142 0 2.9316-2.3753 5.3058-5.3058 5.3058-1.2527 0-2.4035-0.43392-3.3112-1.1606 0.85936 1.7674 2.6744 2.9916 4.7748 2.9916 2.9302 0 5.3058-2.3777 5.3058-5.3058 0-1.6792-0.77928-3.1715-1.9942-4.1451"/>
    <path d="m98.877 173.81h111.23l14.27-18.295h-139.77l14.27 18.295"/>
    <path d="m168.95 82.035c0 0.76906-0.49142 1.397-1.0978 1.397h-12.258c-0.60607 0-1.0975-0.62794-1.0975-1.397v-4.8895c0-0.77258 0.49142-1.397 1.0975-1.397h12.258c0.60642 0 1.0978 0.62442 1.0978 1.397v4.8895"/>
   </g>
   <path d="m132.6 91.327c-1.7836-3.4114-9.8496-1.457-12.485-0.21167-2.153 1.016-6.0498 3.2667-8.534 5.6586-1.9713 1.5699-3.732 3.3973-5.2624 5.4539-1.2718 1.711-3.6717 5.2388-2.1329 7.486 1.6926 2.4694 4.5491 0.32808 5.9683-1.1007 3.6939-3.7112 6.531-7.6906 11.539-9.9519 2.4634-1.1112 13.009-3.3126 10.907-7.3342" fill="#fff"/>
   <path d="m151.47 47.805c-2.4984 0.60678-1.543 5.8244 1.53 3.0162 2.4437-2.2366-0.11641-3.6407-1.53-3.0162" fill="#fff"/>
   <path d="m230.31 215.25-21.74-37.493h-108.16l-21.74 37.493s0.93098 15.621 6.1747 29.905c8.0606 21.953 15.744 30.734 15.744 30.734l26.607 10.276 27.051 2.4871v0.0423s0.18133-0.0212 0.24201-0.0212c0.0607 0 0.24165 0.0212 0.24165 0.0212v-0.0423l27.051-2.4871 26.607-10.276s9.6531-12.439 15.744-30.734c4.8062-14.436 6.1747-29.905 6.1747-29.905" fill="#d5e9f2"/>
   <path d="m208.57 177.76h-25.613l21.74 37.493s-1.3681 15.469-6.1743 29.905c-6.0918 18.295-8.8184 25.58-15.745 30.734-5.7206 4.258-26.607 10.276-26.607 10.276l-14.487 1.33 12.565 1.1571v0.0423s0.18133-0.0212 0.24201-0.0212c0.0607 0 0.24165 0.0212 0.24165 0.0212v-0.0423l27.052-2.4871 26.607-10.276s9.6531-12.439 15.744-30.734c4.8062-14.436 6.1747-29.905 6.1747-29.905l-21.74-37.493" fill="#a8d7e9"/>
   <path d="m78.674 215.25h151.64l-5.9108 11.243z" fill="#a8d7e9"/>
   <path d="m109.11 240.12c-0.4311-5.4398 3.2833-12.943-2.9274-15.815-3.1902-1.4746-8.5803-2.0814-11.048 1.0866-0.90911 1.1677-1.3674 2.6388-1.4531 4.1628-0.88971 3.8806 1.1994 9.5568 2.1749 13.035 1.1486 4.0922 5.1322 18.493 12.468 14.573 5.0003-2.6741 1.1056-13.014 0.78599-17.043" fill="#fff"/>
   <path d="m117.09 185.59c-3.2988-4.7061-7.9389-3.1397-11.242 0.27869-7.3494 4.4732-15.153 22.751-4.0425 24.539 6.4054 1.0301 8.3682-6.7769 10.538-10.996 1.9904-3.87 7.9851-9.2004 4.7466-13.822" fill="#fff"/>
   <path d="m214.88 177.76s47.567-29.566 56.714-29.566c9.1475 0 5.4885 16.464-9.1475 34.449-14.202 17.452-28.174 27.855-28.174 27.855l-19.393-32.738" fill="#d5e9f2"/>
   <path d="m271.59 148.19c-0.91404 0-2.2123 0.29633-3.8079 0.8255-0.26176 6.4347-5.11 16.93-14.121 28.004-9.7501 11.98-19.391 20.638-24.478 24.888l5.0856 8.5866s13.972-10.403 28.174-27.855c14.636-17.985 18.295-34.449 9.1475-34.449" fill="#a8d7e9"/>
   <path d="m96.258 177.76s-59.178-9.5568-66.462-6.5264c-7.2836 3.0268 1.1609 16.02 18.856 26.688 17.17 10.347 27.169 13.169 27.169 13.169l20.437-33.33" fill="#d5e9f2"/>
   <path d="m29.796 171.23c0.72774-0.30339 1.8612-0.47978 3.3099-0.54681 2.3696 5.461 9.755 12.908 20.649 19.477 11.788 7.105 20.739 11.194 28.934 9.7226l-6.8689 11.204s-9.9984-2.8222-27.169-13.169c-17.695-10.668-26.139-23.661-18.856-26.688" fill="#a8d7e9"/>
   <path d="m56.863 177.82c-1.6778-2.667-7.6232-4.2686-10.42-4.1169-1.4383 0.0776-2.3901 0.5715-2.9319 1.2488-1.3176 0.82903-1.1924 1.898-0.2346 2.9669 0.45967 0.95602 1.3928 1.7674 2.679 2.0355l-0.0049-0.0494c5.4649 3.0304 15.156 4.6602 10.912-2.0849" fill="#fff"/>
   <path d="m261.36 155.07c-1.2517-0.82198-4.8839 1.0266-5.915 1.5346-1.724 0.85019-6.1803 3.6512-7.1099 6.3253-1.0354 1.4005-1.2178 2.7799 0.49283 3.6336 2.5834 1.2841 9.7695-4.5367 11.328-6.4558 0.97155-1.1959 2.9168-3.9158 1.204-5.0377" fill="#fff"/>
   <path d="m100.29 279.13s9.6562 25.188 17.745 26.01c8.0881 0.8255 8.3245-16.443 8.3245-16.443l-26.069-9.5673" fill="#d5e9f2"/>
   <path d="m119.85 286.21c-0.0938 2.4448-0.84173 14.362-6.5271 15.875 1.6641 1.7357 3.3563 2.8892 4.9848 3.055 8.0885 0.8255 8.3245-16.443 8.3245-16.443l-6.7822-2.4871" fill="#a8d7e9"/>
   <path d="m184.53 288.7s12.355 18.979 28.265 15.014c6.6552-1.658-3.8421-24.582-3.8421-24.582l-24.422 9.5673" fill="#d5e9f2"/>
   <path d="m208.95 279.13-6.6248 2.5964c2.6688 6.7063 6.8862 19.135 2.051 20.341-1.3056 0.32455-2.5862 0.49389-3.8393 0.53269 3.6844 1.5416 7.832 2.2154 12.255 1.1112 6.6552-1.658-3.8421-24.582-3.8421-24.582" fill="#a8d7e9"/>
   <g fill="#3aedb1">
    <path d="m168.97 134.89c-0.4706-0.0141-0.86783 0.35983-0.88159 0.83255-2e-3 0.0529-0.15522 3.8982-2.6007 5.9161-2.3372 1.9297-6.574 2.5753-8.6311 2.5682-1.9216 0.0847-6.2936-0.63853-8.6307-2.5682-2.4458-2.0179-2.5989-5.8632-2.6007-5.9161-0.0137-0.47272-0.41098-0.84666-0.88159-0.83255-0.47378 0.0141-0.84737 0.40922-0.83396 0.88194 5e-3 0.1905 0.1651 4.6672 3.224 7.1896 3.1231 2.5788 7.1519 2.9704 9.3151 2.9704 2.5816 0 7.0079-0.39158 10.131-2.9704 3.0593-2.5224 3.2187-6.9991 3.224-7.1896 0.0134-0.47272-0.35984-0.86783-0.83362-0.88194"/>
    <path d="m137.9 127.62c-0.67205 0-1.2206-0.53975-1.2284-1.2136-3.5e-4 -0.0106-0.0445-1.5134-0.94897-2.9528-1.1666-1.8556-3.2318-2.7975-6.1387-2.7975h-0.0586c-6.2734 0.0282-7.137 5.2846-7.1706 5.5069-0.10089 0.6738-0.72848 1.1359-1.3981 1.0336-0.67133-0.10231-1.1335-0.72673-1.0326-1.397 0.39406-2.6176 2.9048-7.5741 9.5906-7.6024h0.0699c9.3423 0 9.5433 8.0962 9.5444 8.1809 8e-3 0.67733-0.53587 1.2347-1.2146 1.2418h-0.0145"/>
    <path d="m187.87 127.62c-0.67204 0-1.2206-0.53975-1.2287-1.2136 0-0.0106-0.0441-1.5134-0.94862-2.9528-1.1663-1.8556-3.2318-2.7975-6.1387-2.7975h-0.0589c-6.2734 0.0282-7.1367 5.2846-7.1702 5.5069-0.10089 0.6738-0.72849 1.1359-1.3981 1.0336-0.67133-0.10231-1.1335-0.72673-1.0326-1.397 0.39405-2.6176 2.9048-7.5741 9.5906-7.6024h0.0699c9.3423 0 9.5437 8.0962 9.5444 8.1809 8e-3 0.67733-0.53587 1.2347-1.2146 1.2418h-0.0145"/>
   </g>
  </g>
 </g>
</svg>
